<?xml version="1.0" encoding="UTF-8"?>
<svg xmlns="http://www.w3.org/2000/svg" xmlns:xlink="http://www.w3.org/1999/xlink" version="1.1" width="170" height="170" viewBox="0 0 170 170"><defs><rect id="r0" width="3.0405405405405" height="3.0405405405405" fill="#000000"/></defs><rect x="0" y="0" width="170" height="170" fill="#ffffff"/><use x="10" y="10" xlink:href="#r0"/><use x="13.040540540541" y="10" xlink:href="#r0"/><use x="16.081081081081" y="10" xlink:href="#r0"/><use x="19.121621621622" y="10" xlink:href="#r0"/><use x="22.162162162162" y="10" xlink:href="#r0"/><use x="25.202702702703" y="10" xlink:href="#r0"/><use x="28.243243243243" y="10" xlink:href="#r0"/><use x="37.364864864865" y="10" xlink:href="#r0"/><use x="40.405405405405" y="10" xlink:href="#r0"/><use x="43.445945945946" y="10" xlink:href="#r0"/><use x="55.608108108108" y="10" xlink:href="#r0"/><use x="58.648648648649" y="10" xlink:href="#r0"/><use x="61.689189189189" y="10" xlink:href="#r0"/><use x="70.810810810811" y="10" xlink:href="#r0"/><use x="73.851351351351" y="10" xlink:href="#r0"/><use x="82.972972972973" y="10" xlink:href="#r0"/><use x="89.054054054054" y="10" xlink:href="#r0"/><use x="92.094594594595" y="10" xlink:href="#r0"/><use x="95.135135135135" y="10" xlink:href="#r0"/><use x="101.21621621622" y="10" xlink:href="#r0"/><use x="104.25675675676" y="10" xlink:href="#r0"/><use x="107.2972972973" y="10" xlink:href="#r0"/><use x="113.37837837838" y="10" xlink:href="#r0"/><use x="116.41891891892" y="10" xlink:href="#r0"/><use x="131.62162162162" y="10" xlink:href="#r0"/><use x="137.7027027027" y="10" xlink:href="#r0"/><use x="140.74324324324" y="10" xlink:href="#r0"/><use x="143.78378378378" y="10" xlink:href="#r0"/><use x="146.82432432432" y="10" xlink:href="#r0"/><use x="149.86486486486" y="10" xlink:href="#r0"/><use x="152.90540540541" y="10" xlink:href="#r0"/><use x="155.94594594595" y="10" xlink:href="#r0"/><use x="10" y="13.040540540541" xlink:href="#r0"/><use x="28.243243243243" y="13.040540540541" xlink:href="#r0"/><use x="34.324324324324" y="13.040540540541" xlink:href="#r0"/><use x="37.364864864865" y="13.040540540541" xlink:href="#r0"/><use x="43.445945945946" y="13.040540540541" xlink:href="#r0"/><use x="46.486486486486" y="13.040540540541" xlink:href="#r0"/><use x="49.527027027027" y="13.040540540541" xlink:href="#r0"/><use x="55.608108108108" y="13.040540540541" xlink:href="#r0"/><use x="61.689189189189" y="13.040540540541" xlink:href="#r0"/><use x="73.851351351351" y="13.040540540541" xlink:href="#r0"/><use x="86.013513513514" y="13.040540540541" xlink:href="#r0"/><use x="95.135135135135" y="13.040540540541" xlink:href="#r0"/><use x="116.41891891892" y="13.040540540541" xlink:href="#r0"/><use x="122.5" y="13.040540540541" xlink:href="#r0"/><use x="125.54054054054" y="13.040540540541" xlink:href="#r0"/><use x="128.58108108108" y="13.040540540541" xlink:href="#r0"/><use x="131.62162162162" y="13.040540540541" xlink:href="#r0"/><use x="137.7027027027" y="13.040540540541" xlink:href="#r0"/><use x="155.94594594595" y="13.040540540541" xlink:href="#r0"/><use x="10" y="16.081081081081" xlink:href="#r0"/><use x="16.081081081081" y="16.081081081081" xlink:href="#r0"/><use x="19.121621621622" y="16.081081081081" xlink:href="#r0"/><use x="22.162162162162" y="16.081081081081" xlink:href="#r0"/><use x="28.243243243243" y="16.081081081081" xlink:href="#r0"/><use x="34.324324324324" y="16.081081081081" xlink:href="#r0"/><use x="40.405405405405" y="16.081081081081" xlink:href="#r0"/><use x="43.445945945946" y="16.081081081081" xlink:href="#r0"/><use x="49.527027027027" y="16.081081081081" xlink:href="#r0"/><use x="55.608108108108" y="16.081081081081" xlink:href="#r0"/><use x="76.891891891892" y="16.081081081081" xlink:href="#r0"/><use x="79.932432432432" y="16.081081081081" xlink:href="#r0"/><use x="86.013513513514" y="16.081081081081" xlink:href="#r0"/><use x="89.054054054054" y="16.081081081081" xlink:href="#r0"/><use x="92.094594594595" y="16.081081081081" xlink:href="#r0"/><use x="101.21621621622" y="16.081081081081" xlink:href="#r0"/><use x="107.2972972973" y="16.081081081081" xlink:href="#r0"/><use x="113.37837837838" y="16.081081081081" xlink:href="#r0"/><use x="119.45945945946" y="16.081081081081" xlink:href="#r0"/><use x="122.5" y="16.081081081081" xlink:href="#r0"/><use x="128.58108108108" y="16.081081081081" xlink:href="#r0"/><use x="131.62162162162" y="16.081081081081" xlink:href="#r0"/><use x="137.7027027027" y="16.081081081081" xlink:href="#r0"/><use x="143.78378378378" y="16.081081081081" xlink:href="#r0"/><use x="146.82432432432" y="16.081081081081" xlink:href="#r0"/><use x="149.86486486486" y="16.081081081081" xlink:href="#r0"/><use x="155.94594594595" y="16.081081081081" xlink:href="#r0"/><use x="10" y="19.121621621622" xlink:href="#r0"/><use x="16.081081081081" y="19.121621621622" xlink:href="#r0"/><use x="19.121621621622" y="19.121621621622" xlink:href="#r0"/><use x="22.162162162162" y="19.121621621622" xlink:href="#r0"/><use x="28.243243243243" y="19.121621621622" xlink:href="#r0"/><use x="34.324324324324" y="19.121621621622" xlink:href="#r0"/><use x="37.364864864865" y="19.121621621622" xlink:href="#r0"/><use x="46.486486486486" y="19.121621621622" xlink:href="#r0"/><use x="52.567567567568" y="19.121621621622" xlink:href="#r0"/><use x="55.608108108108" y="19.121621621622" xlink:href="#r0"/><use x="58.648648648649" y="19.121621621622" xlink:href="#r0"/><use x="61.689189189189" y="19.121621621622" xlink:href="#r0"/><use x="64.72972972973" y="19.121621621622" xlink:href="#r0"/><use x="70.810810810811" y="19.121621621622" xlink:href="#r0"/><use x="76.891891891892" y="19.121621621622" xlink:href="#r0"/><use x="79.932432432432" y="19.121621621622" xlink:href="#r0"/><use x="89.054054054054" y="19.121621621622" xlink:href="#r0"/><use x="95.135135135135" y="19.121621621622" xlink:href="#r0"/><use x="101.21621621622" y="19.121621621622" xlink:href="#r0"/><use x="110.33783783784" y="19.121621621622" xlink:href="#r0"/><use x="113.37837837838" y="19.121621621622" xlink:href="#r0"/><use x="128.58108108108" y="19.121621621622" xlink:href="#r0"/><use x="137.7027027027" y="19.121621621622" xlink:href="#r0"/><use x="143.78378378378" y="19.121621621622" xlink:href="#r0"/><use x="146.82432432432" y="19.121621621622" xlink:href="#r0"/><use x="149.86486486486" y="19.121621621622" xlink:href="#r0"/><use x="155.94594594595" y="19.121621621622" xlink:href="#r0"/><use x="10" y="22.162162162162" xlink:href="#r0"/><use x="16.081081081081" y="22.162162162162" xlink:href="#r0"/><use x="19.121621621622" y="22.162162162162" xlink:href="#r0"/><use x="22.162162162162" y="22.162162162162" xlink:href="#r0"/><use x="28.243243243243" y="22.162162162162" xlink:href="#r0"/><use x="34.324324324324" y="22.162162162162" xlink:href="#r0"/><use x="37.364864864865" y="22.162162162162" xlink:href="#r0"/><use x="43.445945945946" y="22.162162162162" xlink:href="#r0"/><use x="49.527027027027" y="22.162162162162" xlink:href="#r0"/><use x="52.567567567568" y="22.162162162162" xlink:href="#r0"/><use x="58.648648648649" y="22.162162162162" xlink:href="#r0"/><use x="67.77027027027" y="22.162162162162" xlink:href="#r0"/><use x="73.851351351351" y="22.162162162162" xlink:href="#r0"/><use x="76.891891891892" y="22.162162162162" xlink:href="#r0"/><use x="79.932432432432" y="22.162162162162" xlink:href="#r0"/><use x="82.972972972973" y="22.162162162162" xlink:href="#r0"/><use x="86.013513513514" y="22.162162162162" xlink:href="#r0"/><use x="89.054054054054" y="22.162162162162" xlink:href="#r0"/><use x="95.135135135135" y="22.162162162162" xlink:href="#r0"/><use x="98.175675675676" y="22.162162162162" xlink:href="#r0"/><use x="101.21621621622" y="22.162162162162" xlink:href="#r0"/><use x="104.25675675676" y="22.162162162162" xlink:href="#r0"/><use x="113.37837837838" y="22.162162162162" xlink:href="#r0"/><use x="116.41891891892" y="22.162162162162" xlink:href="#r0"/><use x="137.7027027027" y="22.162162162162" xlink:href="#r0"/><use x="143.78378378378" y="22.162162162162" xlink:href="#r0"/><use x="146.82432432432" y="22.162162162162" xlink:href="#r0"/><use x="149.86486486486" y="22.162162162162" xlink:href="#r0"/><use x="155.94594594595" y="22.162162162162" xlink:href="#r0"/><use x="10" y="25.202702702703" xlink:href="#r0"/><use x="28.243243243243" y="25.202702702703" xlink:href="#r0"/><use x="34.324324324324" y="25.202702702703" xlink:href="#r0"/><use x="37.364864864865" y="25.202702702703" xlink:href="#r0"/><use x="43.445945945946" y="25.202702702703" xlink:href="#r0"/><use x="49.527027027027" y="25.202702702703" xlink:href="#r0"/><use x="55.608108108108" y="25.202702702703" xlink:href="#r0"/><use x="58.648648648649" y="25.202702702703" xlink:href="#r0"/><use x="61.689189189189" y="25.202702702703" xlink:href="#r0"/><use x="67.77027027027" y="25.202702702703" xlink:href="#r0"/><use x="73.851351351351" y="25.202702702703" xlink:href="#r0"/><use x="76.891891891892" y="25.202702702703" xlink:href="#r0"/><use x="89.054054054054" y="25.202702702703" xlink:href="#r0"/><use x="92.094594594595" y="25.202702702703" xlink:href="#r0"/><use x="95.135135135135" y="25.202702702703" xlink:href="#r0"/><use x="101.21621621622" y="25.202702702703" xlink:href="#r0"/><use x="107.2972972973" y="25.202702702703" xlink:href="#r0"/><use x="113.37837837838" y="25.202702702703" xlink:href="#r0"/><use x="116.41891891892" y="25.202702702703" xlink:href="#r0"/><use x="125.54054054054" y="25.202702702703" xlink:href="#r0"/><use x="137.7027027027" y="25.202702702703" xlink:href="#r0"/><use x="155.94594594595" y="25.202702702703" xlink:href="#r0"/><use x="10" y="28.243243243243" xlink:href="#r0"/><use x="13.040540540541" y="28.243243243243" xlink:href="#r0"/><use x="16.081081081081" y="28.243243243243" xlink:href="#r0"/><use x="19.121621621622" y="28.243243243243" xlink:href="#r0"/><use x="22.162162162162" y="28.243243243243" xlink:href="#r0"/><use x="25.202702702703" y="28.243243243243" xlink:href="#r0"/><use x="28.243243243243" y="28.243243243243" xlink:href="#r0"/><use x="34.324324324324" y="28.243243243243" xlink:href="#r0"/><use x="40.405405405405" y="28.243243243243" xlink:href="#r0"/><use x="46.486486486486" y="28.243243243243" xlink:href="#r0"/><use x="52.567567567568" y="28.243243243243" xlink:href="#r0"/><use x="58.648648648649" y="28.243243243243" xlink:href="#r0"/><use x="64.72972972973" y="28.243243243243" xlink:href="#r0"/><use x="70.810810810811" y="28.243243243243" xlink:href="#r0"/><use x="76.891891891892" y="28.243243243243" xlink:href="#r0"/><use x="82.972972972973" y="28.243243243243" xlink:href="#r0"/><use x="89.054054054054" y="28.243243243243" xlink:href="#r0"/><use x="95.135135135135" y="28.243243243243" xlink:href="#r0"/><use x="101.21621621622" y="28.243243243243" xlink:href="#r0"/><use x="107.2972972973" y="28.243243243243" xlink:href="#r0"/><use x="113.37837837838" y="28.243243243243" xlink:href="#r0"/><use x="119.45945945946" y="28.243243243243" xlink:href="#r0"/><use x="125.54054054054" y="28.243243243243" xlink:href="#r0"/><use x="131.62162162162" y="28.243243243243" xlink:href="#r0"/><use x="137.7027027027" y="28.243243243243" xlink:href="#r0"/><use x="140.74324324324" y="28.243243243243" xlink:href="#r0"/><use x="143.78378378378" y="28.243243243243" xlink:href="#r0"/><use x="146.82432432432" y="28.243243243243" xlink:href="#r0"/><use x="149.86486486486" y="28.243243243243" xlink:href="#r0"/><use x="152.90540540541" y="28.243243243243" xlink:href="#r0"/><use x="155.94594594595" y="28.243243243243" xlink:href="#r0"/><use x="37.364864864865" y="31.283783783784" xlink:href="#r0"/><use x="43.445945945946" y="31.283783783784" xlink:href="#r0"/><use x="46.486486486486" y="31.283783783784" xlink:href="#r0"/><use x="52.567567567568" y="31.283783783784" xlink:href="#r0"/><use x="61.689189189189" y="31.283783783784" xlink:href="#r0"/><use x="70.810810810811" y="31.283783783784" xlink:href="#r0"/><use x="73.851351351351" y="31.283783783784" xlink:href="#r0"/><use x="76.891891891892" y="31.283783783784" xlink:href="#r0"/><use x="89.054054054054" y="31.283783783784" xlink:href="#r0"/><use x="92.094594594595" y="31.283783783784" xlink:href="#r0"/><use x="98.175675675676" y="31.283783783784" xlink:href="#r0"/><use x="101.21621621622" y="31.283783783784" xlink:href="#r0"/><use x="104.25675675676" y="31.283783783784" xlink:href="#r0"/><use x="107.2972972973" y="31.283783783784" xlink:href="#r0"/><use x="110.33783783784" y="31.283783783784" xlink:href="#r0"/><use x="122.5" y="31.283783783784" xlink:href="#r0"/><use x="128.58108108108" y="31.283783783784" xlink:href="#r0"/><use x="16.081081081081" y="34.324324324324" xlink:href="#r0"/><use x="25.202702702703" y="34.324324324324" xlink:href="#r0"/><use x="28.243243243243" y="34.324324324324" xlink:href="#r0"/><use x="31.283783783784" y="34.324324324324" xlink:href="#r0"/><use x="34.324324324324" y="34.324324324324" xlink:href="#r0"/><use x="40.405405405405" y="34.324324324324" xlink:href="#r0"/><use x="46.486486486486" y="34.324324324324" xlink:href="#r0"/><use x="52.567567567568" y="34.324324324324" xlink:href="#r0"/><use x="58.648648648649" y="34.324324324324" xlink:href="#r0"/><use x="61.689189189189" y="34.324324324324" xlink:href="#r0"/><use x="64.72972972973" y="34.324324324324" xlink:href="#r0"/><use x="67.77027027027" y="34.324324324324" xlink:href="#r0"/><use x="76.891891891892" y="34.324324324324" xlink:href="#r0"/><use x="79.932432432432" y="34.324324324324" xlink:href="#r0"/><use x="82.972972972973" y="34.324324324324" xlink:href="#r0"/><use x="86.013513513514" y="34.324324324324" xlink:href="#r0"/><use x="89.054054054054" y="34.324324324324" xlink:href="#r0"/><use x="98.175675675676" y="34.324324324324" xlink:href="#r0"/><use x="101.21621621622" y="34.324324324324" xlink:href="#r0"/><use x="107.2972972973" y="34.324324324324" xlink:href="#r0"/><use x="122.5" y="34.324324324324" xlink:href="#r0"/><use x="131.62162162162" y="34.324324324324" xlink:href="#r0"/><use x="134.66216216216" y="34.324324324324" xlink:href="#r0"/><use x="140.74324324324" y="34.324324324324" xlink:href="#r0"/><use x="143.78378378378" y="34.324324324324" xlink:href="#r0"/><use x="146.82432432432" y="34.324324324324" xlink:href="#r0"/><use x="149.86486486486" y="34.324324324324" xlink:href="#r0"/><use x="152.90540540541" y="34.324324324324" xlink:href="#r0"/><use x="13.040540540541" y="37.364864864865" xlink:href="#r0"/><use x="16.081081081081" y="37.364864864865" xlink:href="#r0"/><use x="19.121621621622" y="37.364864864865" xlink:href="#r0"/><use x="22.162162162162" y="37.364864864865" xlink:href="#r0"/><use x="43.445945945946" y="37.364864864865" xlink:href="#r0"/><use x="46.486486486486" y="37.364864864865" xlink:href="#r0"/><use x="49.527027027027" y="37.364864864865" xlink:href="#r0"/><use x="52.567567567568" y="37.364864864865" xlink:href="#r0"/><use x="61.689189189189" y="37.364864864865" xlink:href="#r0"/><use x="64.72972972973" y="37.364864864865" xlink:href="#r0"/><use x="70.810810810811" y="37.364864864865" xlink:href="#r0"/><use x="73.851351351351" y="37.364864864865" xlink:href="#r0"/><use x="95.135135135135" y="37.364864864865" xlink:href="#r0"/><use x="101.21621621622" y="37.364864864865" xlink:href="#r0"/><use x="104.25675675676" y="37.364864864865" xlink:href="#r0"/><use x="110.33783783784" y="37.364864864865" xlink:href="#r0"/><use x="119.45945945946" y="37.364864864865" xlink:href="#r0"/><use x="122.5" y="37.364864864865" xlink:href="#r0"/><use x="128.58108108108" y="37.364864864865" xlink:href="#r0"/><use x="140.74324324324" y="37.364864864865" xlink:href="#r0"/><use x="143.78378378378" y="37.364864864865" xlink:href="#r0"/><use x="146.82432432432" y="37.364864864865" xlink:href="#r0"/><use x="155.94594594595" y="37.364864864865" xlink:href="#r0"/><use x="10" y="40.405405405405" xlink:href="#r0"/><use x="13.040540540541" y="40.405405405405" xlink:href="#r0"/><use x="19.121621621622" y="40.405405405405" xlink:href="#r0"/><use x="22.162162162162" y="40.405405405405" xlink:href="#r0"/><use x="25.202702702703" y="40.405405405405" xlink:href="#r0"/><use x="28.243243243243" y="40.405405405405" xlink:href="#r0"/><use x="31.283783783784" y="40.405405405405" xlink:href="#r0"/><use x="37.364864864865" y="40.405405405405" xlink:href="#r0"/><use x="40.405405405405" y="40.405405405405" xlink:href="#r0"/><use x="46.486486486486" y="40.405405405405" xlink:href="#r0"/><use x="52.567567567568" y="40.405405405405" xlink:href="#r0"/><use x="67.77027027027" y="40.405405405405" xlink:href="#r0"/><use x="76.891891891892" y="40.405405405405" xlink:href="#r0"/><use x="82.972972972973" y="40.405405405405" xlink:href="#r0"/><use x="92.094594594595" y="40.405405405405" xlink:href="#r0"/><use x="95.135135135135" y="40.405405405405" xlink:href="#r0"/><use x="107.2972972973" y="40.405405405405" xlink:href="#r0"/><use x="113.37837837838" y="40.405405405405" xlink:href="#r0"/><use x="122.5" y="40.405405405405" xlink:href="#r0"/><use x="125.54054054054" y="40.405405405405" xlink:href="#r0"/><use x="128.58108108108" y="40.405405405405" xlink:href="#r0"/><use x="134.66216216216" y="40.405405405405" xlink:href="#r0"/><use x="137.7027027027" y="40.405405405405" xlink:href="#r0"/><use x="143.78378378378" y="40.405405405405" xlink:href="#r0"/><use x="10" y="43.445945945946" xlink:href="#r0"/><use x="13.040540540541" y="43.445945945946" xlink:href="#r0"/><use x="16.081081081081" y="43.445945945946" xlink:href="#r0"/><use x="40.405405405405" y="43.445945945946" xlink:href="#r0"/><use x="43.445945945946" y="43.445945945946" xlink:href="#r0"/><use x="55.608108108108" y="43.445945945946" xlink:href="#r0"/><use x="64.72972972973" y="43.445945945946" xlink:href="#r0"/><use x="70.810810810811" y="43.445945945946" xlink:href="#r0"/><use x="73.851351351351" y="43.445945945946" xlink:href="#r0"/><use x="82.972972972973" y="43.445945945946" xlink:href="#r0"/><use x="86.013513513514" y="43.445945945946" xlink:href="#r0"/><use x="89.054054054054" y="43.445945945946" xlink:href="#r0"/><use x="92.094594594595" y="43.445945945946" xlink:href="#r0"/><use x="101.21621621622" y="43.445945945946" xlink:href="#r0"/><use x="104.25675675676" y="43.445945945946" xlink:href="#r0"/><use x="110.33783783784" y="43.445945945946" xlink:href="#r0"/><use x="116.41891891892" y="43.445945945946" xlink:href="#r0"/><use x="119.45945945946" y="43.445945945946" xlink:href="#r0"/><use x="128.58108108108" y="43.445945945946" xlink:href="#r0"/><use x="134.66216216216" y="43.445945945946" xlink:href="#r0"/><use x="140.74324324324" y="43.445945945946" xlink:href="#r0"/><use x="143.78378378378" y="43.445945945946" xlink:href="#r0"/><use x="155.94594594595" y="43.445945945946" xlink:href="#r0"/><use x="10" y="46.486486486486" xlink:href="#r0"/><use x="13.040540540541" y="46.486486486486" xlink:href="#r0"/><use x="22.162162162162" y="46.486486486486" xlink:href="#r0"/><use x="28.243243243243" y="46.486486486486" xlink:href="#r0"/><use x="31.283783783784" y="46.486486486486" xlink:href="#r0"/><use x="34.324324324324" y="46.486486486486" xlink:href="#r0"/><use x="40.405405405405" y="46.486486486486" xlink:href="#r0"/><use x="49.527027027027" y="46.486486486486" xlink:href="#r0"/><use x="55.608108108108" y="46.486486486486" xlink:href="#r0"/><use x="61.689189189189" y="46.486486486486" xlink:href="#r0"/><use x="67.77027027027" y="46.486486486486" xlink:href="#r0"/><use x="70.810810810811" y="46.486486486486" xlink:href="#r0"/><use x="82.972972972973" y="46.486486486486" xlink:href="#r0"/><use x="86.013513513514" y="46.486486486486" xlink:href="#r0"/><use x="92.094594594595" y="46.486486486486" xlink:href="#r0"/><use x="98.175675675676" y="46.486486486486" xlink:href="#r0"/><use x="101.21621621622" y="46.486486486486" xlink:href="#r0"/><use x="104.25675675676" y="46.486486486486" xlink:href="#r0"/><use x="110.33783783784" y="46.486486486486" xlink:href="#r0"/><use x="128.58108108108" y="46.486486486486" xlink:href="#r0"/><use x="140.74324324324" y="46.486486486486" xlink:href="#r0"/><use x="143.78378378378" y="46.486486486486" xlink:href="#r0"/><use x="152.90540540541" y="46.486486486486" xlink:href="#r0"/><use x="155.94594594595" y="46.486486486486" xlink:href="#r0"/><use x="16.081081081081" y="49.527027027027" xlink:href="#r0"/><use x="19.121621621622" y="49.527027027027" xlink:href="#r0"/><use x="25.202702702703" y="49.527027027027" xlink:href="#r0"/><use x="31.283783783784" y="49.527027027027" xlink:href="#r0"/><use x="34.324324324324" y="49.527027027027" xlink:href="#r0"/><use x="43.445945945946" y="49.527027027027" xlink:href="#r0"/><use x="46.486486486486" y="49.527027027027" xlink:href="#r0"/><use x="52.567567567568" y="49.527027027027" xlink:href="#r0"/><use x="58.648648648649" y="49.527027027027" xlink:href="#r0"/><use x="61.689189189189" y="49.527027027027" xlink:href="#r0"/><use x="64.72972972973" y="49.527027027027" xlink:href="#r0"/><use x="67.77027027027" y="49.527027027027" xlink:href="#r0"/><use x="76.891891891892" y="49.527027027027" xlink:href="#r0"/><use x="82.972972972973" y="49.527027027027" xlink:href="#r0"/><use x="86.013513513514" y="49.527027027027" xlink:href="#r0"/><use x="92.094594594595" y="49.527027027027" xlink:href="#r0"/><use x="95.135135135135" y="49.527027027027" xlink:href="#r0"/><use x="107.2972972973" y="49.527027027027" xlink:href="#r0"/><use x="119.45945945946" y="49.527027027027" xlink:href="#r0"/><use x="122.5" y="49.527027027027" xlink:href="#r0"/><use x="125.54054054054" y="49.527027027027" xlink:href="#r0"/><use x="131.62162162162" y="49.527027027027" xlink:href="#r0"/><use x="143.78378378378" y="49.527027027027" xlink:href="#r0"/><use x="146.82432432432" y="49.527027027027" xlink:href="#r0"/><use x="16.081081081081" y="52.567567567568" xlink:href="#r0"/><use x="25.202702702703" y="52.567567567568" xlink:href="#r0"/><use x="28.243243243243" y="52.567567567568" xlink:href="#r0"/><use x="37.364864864865" y="52.567567567568" xlink:href="#r0"/><use x="55.608108108108" y="52.567567567568" xlink:href="#r0"/><use x="58.648648648649" y="52.567567567568" xlink:href="#r0"/><use x="64.72972972973" y="52.567567567568" xlink:href="#r0"/><use x="70.810810810811" y="52.567567567568" xlink:href="#r0"/><use x="76.891891891892" y="52.567567567568" xlink:href="#r0"/><use x="82.972972972973" y="52.567567567568" xlink:href="#r0"/><use x="89.054054054054" y="52.567567567568" xlink:href="#r0"/><use x="92.094594594595" y="52.567567567568" xlink:href="#r0"/><use x="95.135135135135" y="52.567567567568" xlink:href="#r0"/><use x="104.25675675676" y="52.567567567568" xlink:href="#r0"/><use x="119.45945945946" y="52.567567567568" xlink:href="#r0"/><use x="125.54054054054" y="52.567567567568" xlink:href="#r0"/><use x="134.66216216216" y="52.567567567568" xlink:href="#r0"/><use x="143.78378378378" y="52.567567567568" xlink:href="#r0"/><use x="146.82432432432" y="52.567567567568" xlink:href="#r0"/><use x="155.94594594595" y="52.567567567568" xlink:href="#r0"/><use x="10" y="55.608108108108" xlink:href="#r0"/><use x="19.121621621622" y="55.608108108108" xlink:href="#r0"/><use x="22.162162162162" y="55.608108108108" xlink:href="#r0"/><use x="25.202702702703" y="55.608108108108" xlink:href="#r0"/><use x="31.283783783784" y="55.608108108108" xlink:href="#r0"/><use x="34.324324324324" y="55.608108108108" xlink:href="#r0"/><use x="37.364864864865" y="55.608108108108" xlink:href="#r0"/><use x="46.486486486486" y="55.608108108108" xlink:href="#r0"/><use x="52.567567567568" y="55.608108108108" xlink:href="#r0"/><use x="61.689189189189" y="55.608108108108" xlink:href="#r0"/><use x="79.932432432432" y="55.608108108108" xlink:href="#r0"/><use x="82.972972972973" y="55.608108108108" xlink:href="#r0"/><use x="86.013513513514" y="55.608108108108" xlink:href="#r0"/><use x="95.135135135135" y="55.608108108108" xlink:href="#r0"/><use x="98.175675675676" y="55.608108108108" xlink:href="#r0"/><use x="104.25675675676" y="55.608108108108" xlink:href="#r0"/><use x="107.2972972973" y="55.608108108108" xlink:href="#r0"/><use x="119.45945945946" y="55.608108108108" xlink:href="#r0"/><use x="134.66216216216" y="55.608108108108" xlink:href="#r0"/><use x="143.78378378378" y="55.608108108108" xlink:href="#r0"/><use x="155.94594594595" y="55.608108108108" xlink:href="#r0"/><use x="10" y="58.648648648649" xlink:href="#r0"/><use x="16.081081081081" y="58.648648648649" xlink:href="#r0"/><use x="22.162162162162" y="58.648648648649" xlink:href="#r0"/><use x="28.243243243243" y="58.648648648649" xlink:href="#r0"/><use x="34.324324324324" y="58.648648648649" xlink:href="#r0"/><use x="46.486486486486" y="58.648648648649" xlink:href="#r0"/><use x="58.648648648649" y="58.648648648649" xlink:href="#r0"/><use x="61.689189189189" y="58.648648648649" xlink:href="#r0"/><use x="67.77027027027" y="58.648648648649" xlink:href="#r0"/><use x="70.810810810811" y="58.648648648649" xlink:href="#r0"/><use x="79.932432432432" y="58.648648648649" xlink:href="#r0"/><use x="86.013513513514" y="58.648648648649" xlink:href="#r0"/><use x="89.054054054054" y="58.648648648649" xlink:href="#r0"/><use x="95.135135135135" y="58.648648648649" xlink:href="#r0"/><use x="113.37837837838" y="58.648648648649" xlink:href="#r0"/><use x="119.45945945946" y="58.648648648649" xlink:href="#r0"/><use x="125.54054054054" y="58.648648648649" xlink:href="#r0"/><use x="128.58108108108" y="58.648648648649" xlink:href="#r0"/><use x="131.62162162162" y="58.648648648649" xlink:href="#r0"/><use x="134.66216216216" y="58.648648648649" xlink:href="#r0"/><use x="140.74324324324" y="58.648648648649" xlink:href="#r0"/><use x="143.78378378378" y="58.648648648649" xlink:href="#r0"/><use x="155.94594594595" y="58.648648648649" xlink:href="#r0"/><use x="22.162162162162" y="61.689189189189" xlink:href="#r0"/><use x="25.202702702703" y="61.689189189189" xlink:href="#r0"/><use x="43.445945945946" y="61.689189189189" xlink:href="#r0"/><use x="46.486486486486" y="61.689189189189" xlink:href="#r0"/><use x="49.527027027027" y="61.689189189189" xlink:href="#r0"/><use x="67.77027027027" y="61.689189189189" xlink:href="#r0"/><use x="73.851351351351" y="61.689189189189" xlink:href="#r0"/><use x="76.891891891892" y="61.689189189189" xlink:href="#r0"/><use x="86.013513513514" y="61.689189189189" xlink:href="#r0"/><use x="92.094594594595" y="61.689189189189" xlink:href="#r0"/><use x="95.135135135135" y="61.689189189189" xlink:href="#r0"/><use x="101.21621621622" y="61.689189189189" xlink:href="#r0"/><use x="119.45945945946" y="61.689189189189" xlink:href="#r0"/><use x="128.58108108108" y="61.689189189189" xlink:href="#r0"/><use x="131.62162162162" y="61.689189189189" xlink:href="#r0"/><use x="134.66216216216" y="61.689189189189" xlink:href="#r0"/><use x="140.74324324324" y="61.689189189189" xlink:href="#r0"/><use x="143.78378378378" y="61.689189189189" xlink:href="#r0"/><use x="146.82432432432" y="61.689189189189" xlink:href="#r0"/><use x="13.040540540541" y="64.72972972973" xlink:href="#r0"/><use x="25.202702702703" y="64.72972972973" xlink:href="#r0"/><use x="28.243243243243" y="64.72972972973" xlink:href="#r0"/><use x="37.364864864865" y="64.72972972973" xlink:href="#r0"/><use x="40.405405405405" y="64.72972972973" xlink:href="#r0"/><use x="43.445945945946" y="64.72972972973" xlink:href="#r0"/><use x="52.567567567568" y="64.72972972973" xlink:href="#r0"/><use x="55.608108108108" y="64.72972972973" xlink:href="#r0"/><use x="70.810810810811" y="64.72972972973" xlink:href="#r0"/><use x="76.891891891892" y="64.72972972973" xlink:href="#r0"/><use x="79.932432432432" y="64.72972972973" xlink:href="#r0"/><use x="82.972972972973" y="64.72972972973" xlink:href="#r0"/><use x="89.054054054054" y="64.72972972973" xlink:href="#r0"/><use x="95.135135135135" y="64.72972972973" xlink:href="#r0"/><use x="101.21621621622" y="64.72972972973" xlink:href="#r0"/><use x="104.25675675676" y="64.72972972973" xlink:href="#r0"/><use x="107.2972972973" y="64.72972972973" xlink:href="#r0"/><use x="113.37837837838" y="64.72972972973" xlink:href="#r0"/><use x="116.41891891892" y="64.72972972973" xlink:href="#r0"/><use x="119.45945945946" y="64.72972972973" xlink:href="#r0"/><use x="125.54054054054" y="64.72972972973" xlink:href="#r0"/><use x="128.58108108108" y="64.72972972973" xlink:href="#r0"/><use x="137.7027027027" y="64.72972972973" xlink:href="#r0"/><use x="143.78378378378" y="64.72972972973" xlink:href="#r0"/><use x="146.82432432432" y="64.72972972973" xlink:href="#r0"/><use x="149.86486486486" y="64.72972972973" xlink:href="#r0"/><use x="155.94594594595" y="64.72972972973" xlink:href="#r0"/><use x="22.162162162162" y="67.77027027027" xlink:href="#r0"/><use x="34.324324324324" y="67.77027027027" xlink:href="#r0"/><use x="37.364864864865" y="67.77027027027" xlink:href="#r0"/><use x="40.405405405405" y="67.77027027027" xlink:href="#r0"/><use x="49.527027027027" y="67.77027027027" xlink:href="#r0"/><use x="58.648648648649" y="67.77027027027" xlink:href="#r0"/><use x="64.72972972973" y="67.77027027027" xlink:href="#r0"/><use x="73.851351351351" y="67.77027027027" xlink:href="#r0"/><use x="76.891891891892" y="67.77027027027" xlink:href="#r0"/><use x="89.054054054054" y="67.77027027027" xlink:href="#r0"/><use x="98.175675675676" y="67.77027027027" xlink:href="#r0"/><use x="104.25675675676" y="67.77027027027" xlink:href="#r0"/><use x="110.33783783784" y="67.77027027027" xlink:href="#r0"/><use x="116.41891891892" y="67.77027027027" xlink:href="#r0"/><use x="119.45945945946" y="67.77027027027" xlink:href="#r0"/><use x="128.58108108108" y="67.77027027027" xlink:href="#r0"/><use x="131.62162162162" y="67.77027027027" xlink:href="#r0"/><use x="134.66216216216" y="67.77027027027" xlink:href="#r0"/><use x="149.86486486486" y="67.77027027027" xlink:href="#r0"/><use x="152.90540540541" y="67.77027027027" xlink:href="#r0"/><use x="155.94594594595" y="67.77027027027" xlink:href="#r0"/><use x="10" y="70.810810810811" xlink:href="#r0"/><use x="13.040540540541" y="70.810810810811" xlink:href="#r0"/><use x="16.081081081081" y="70.810810810811" xlink:href="#r0"/><use x="28.243243243243" y="70.810810810811" xlink:href="#r0"/><use x="31.283783783784" y="70.810810810811" xlink:href="#r0"/><use x="37.364864864865" y="70.810810810811" xlink:href="#r0"/><use x="40.405405405405" y="70.810810810811" xlink:href="#r0"/><use x="46.486486486486" y="70.810810810811" xlink:href="#r0"/><use x="49.527027027027" y="70.810810810811" xlink:href="#r0"/><use x="58.648648648649" y="70.810810810811" xlink:href="#r0"/><use x="64.72972972973" y="70.810810810811" xlink:href="#r0"/><use x="67.77027027027" y="70.810810810811" xlink:href="#r0"/><use x="73.851351351351" y="70.810810810811" xlink:href="#r0"/><use x="79.932432432432" y="70.810810810811" xlink:href="#r0"/><use x="86.013513513514" y="70.810810810811" xlink:href="#r0"/><use x="89.054054054054" y="70.810810810811" xlink:href="#r0"/><use x="92.094594594595" y="70.810810810811" xlink:href="#r0"/><use x="95.135135135135" y="70.810810810811" xlink:href="#r0"/><use x="101.21621621622" y="70.810810810811" xlink:href="#r0"/><use x="104.25675675676" y="70.810810810811" xlink:href="#r0"/><use x="107.2972972973" y="70.810810810811" xlink:href="#r0"/><use x="122.5" y="70.810810810811" xlink:href="#r0"/><use x="131.62162162162" y="70.810810810811" xlink:href="#r0"/><use x="143.78378378378" y="70.810810810811" xlink:href="#r0"/><use x="149.86486486486" y="70.810810810811" xlink:href="#r0"/><use x="155.94594594595" y="70.810810810811" xlink:href="#r0"/><use x="13.040540540541" y="73.851351351351" xlink:href="#r0"/><use x="22.162162162162" y="73.851351351351" xlink:href="#r0"/><use x="31.283783783784" y="73.851351351351" xlink:href="#r0"/><use x="43.445945945946" y="73.851351351351" xlink:href="#r0"/><use x="46.486486486486" y="73.851351351351" xlink:href="#r0"/><use x="79.932432432432" y="73.851351351351" xlink:href="#r0"/><use x="86.013513513514" y="73.851351351351" xlink:href="#r0"/><use x="89.054054054054" y="73.851351351351" xlink:href="#r0"/><use x="95.135135135135" y="73.851351351351" xlink:href="#r0"/><use x="101.21621621622" y="73.851351351351" xlink:href="#r0"/><use x="113.37837837838" y="73.851351351351" xlink:href="#r0"/><use x="119.45945945946" y="73.851351351351" xlink:href="#r0"/><use x="122.5" y="73.851351351351" xlink:href="#r0"/><use x="125.54054054054" y="73.851351351351" xlink:href="#r0"/><use x="128.58108108108" y="73.851351351351" xlink:href="#r0"/><use x="134.66216216216" y="73.851351351351" xlink:href="#r0"/><use x="140.74324324324" y="73.851351351351" xlink:href="#r0"/><use x="143.78378378378" y="73.851351351351" xlink:href="#r0"/><use x="10" y="76.891891891892" xlink:href="#r0"/><use x="16.081081081081" y="76.891891891892" xlink:href="#r0"/><use x="22.162162162162" y="76.891891891892" xlink:href="#r0"/><use x="25.202702702703" y="76.891891891892" xlink:href="#r0"/><use x="28.243243243243" y="76.891891891892" xlink:href="#r0"/><use x="31.283783783784" y="76.891891891892" xlink:href="#r0"/><use x="34.324324324324" y="76.891891891892" xlink:href="#r0"/><use x="43.445945945946" y="76.891891891892" xlink:href="#r0"/><use x="49.527027027027" y="76.891891891892" xlink:href="#r0"/><use x="55.608108108108" y="76.891891891892" xlink:href="#r0"/><use x="58.648648648649" y="76.891891891892" xlink:href="#r0"/><use x="61.689189189189" y="76.891891891892" xlink:href="#r0"/><use x="64.72972972973" y="76.891891891892" xlink:href="#r0"/><use x="70.810810810811" y="76.891891891892" xlink:href="#r0"/><use x="76.891891891892" y="76.891891891892" xlink:href="#r0"/><use x="79.932432432432" y="76.891891891892" xlink:href="#r0"/><use x="82.972972972973" y="76.891891891892" xlink:href="#r0"/><use x="86.013513513514" y="76.891891891892" xlink:href="#r0"/><use x="89.054054054054" y="76.891891891892" xlink:href="#r0"/><use x="95.135135135135" y="76.891891891892" xlink:href="#r0"/><use x="98.175675675676" y="76.891891891892" xlink:href="#r0"/><use x="101.21621621622" y="76.891891891892" xlink:href="#r0"/><use x="107.2972972973" y="76.891891891892" xlink:href="#r0"/><use x="113.37837837838" y="76.891891891892" xlink:href="#r0"/><use x="116.41891891892" y="76.891891891892" xlink:href="#r0"/><use x="119.45945945946" y="76.891891891892" xlink:href="#r0"/><use x="128.58108108108" y="76.891891891892" xlink:href="#r0"/><use x="131.62162162162" y="76.891891891892" xlink:href="#r0"/><use x="134.66216216216" y="76.891891891892" xlink:href="#r0"/><use x="137.7027027027" y="76.891891891892" xlink:href="#r0"/><use x="140.74324324324" y="76.891891891892" xlink:href="#r0"/><use x="143.78378378378" y="76.891891891892" xlink:href="#r0"/><use x="146.82432432432" y="76.891891891892" xlink:href="#r0"/><use x="155.94594594595" y="76.891891891892" xlink:href="#r0"/><use x="16.081081081081" y="79.932432432432" xlink:href="#r0"/><use x="22.162162162162" y="79.932432432432" xlink:href="#r0"/><use x="34.324324324324" y="79.932432432432" xlink:href="#r0"/><use x="37.364864864865" y="79.932432432432" xlink:href="#r0"/><use x="43.445945945946" y="79.932432432432" xlink:href="#r0"/><use x="55.608108108108" y="79.932432432432" xlink:href="#r0"/><use x="61.689189189189" y="79.932432432432" xlink:href="#r0"/><use x="76.891891891892" y="79.932432432432" xlink:href="#r0"/><use x="89.054054054054" y="79.932432432432" xlink:href="#r0"/><use x="92.094594594595" y="79.932432432432" xlink:href="#r0"/><use x="95.135135135135" y="79.932432432432" xlink:href="#r0"/><use x="98.175675675676" y="79.932432432432" xlink:href="#r0"/><use x="110.33783783784" y="79.932432432432" xlink:href="#r0"/><use x="116.41891891892" y="79.932432432432" xlink:href="#r0"/><use x="122.5" y="79.932432432432" xlink:href="#r0"/><use x="128.58108108108" y="79.932432432432" xlink:href="#r0"/><use x="131.62162162162" y="79.932432432432" xlink:href="#r0"/><use x="143.78378378378" y="79.932432432432" xlink:href="#r0"/><use x="146.82432432432" y="79.932432432432" xlink:href="#r0"/><use x="149.86486486486" y="79.932432432432" xlink:href="#r0"/><use x="155.94594594595" y="79.932432432432" xlink:href="#r0"/><use x="10" y="82.972972972973" xlink:href="#r0"/><use x="16.081081081081" y="82.972972972973" xlink:href="#r0"/><use x="19.121621621622" y="82.972972972973" xlink:href="#r0"/><use x="22.162162162162" y="82.972972972973" xlink:href="#r0"/><use x="28.243243243243" y="82.972972972973" xlink:href="#r0"/><use x="34.324324324324" y="82.972972972973" xlink:href="#r0"/><use x="40.405405405405" y="82.972972972973" xlink:href="#r0"/><use x="43.445945945946" y="82.972972972973" xlink:href="#r0"/><use x="55.608108108108" y="82.972972972973" xlink:href="#r0"/><use x="58.648648648649" y="82.972972972973" xlink:href="#r0"/><use x="61.689189189189" y="82.972972972973" xlink:href="#r0"/><use x="70.810810810811" y="82.972972972973" xlink:href="#r0"/><use x="73.851351351351" y="82.972972972973" xlink:href="#r0"/><use x="76.891891891892" y="82.972972972973" xlink:href="#r0"/><use x="82.972972972973" y="82.972972972973" xlink:href="#r0"/><use x="89.054054054054" y="82.972972972973" xlink:href="#r0"/><use x="95.135135135135" y="82.972972972973" xlink:href="#r0"/><use x="98.175675675676" y="82.972972972973" xlink:href="#r0"/><use x="110.33783783784" y="82.972972972973" xlink:href="#r0"/><use x="122.5" y="82.972972972973" xlink:href="#r0"/><use x="131.62162162162" y="82.972972972973" xlink:href="#r0"/><use x="137.7027027027" y="82.972972972973" xlink:href="#r0"/><use x="143.78378378378" y="82.972972972973" xlink:href="#r0"/><use x="146.82432432432" y="82.972972972973" xlink:href="#r0"/><use x="152.90540540541" y="82.972972972973" xlink:href="#r0"/><use x="10" y="86.013513513514" xlink:href="#r0"/><use x="22.162162162162" y="86.013513513514" xlink:href="#r0"/><use x="34.324324324324" y="86.013513513514" xlink:href="#r0"/><use x="46.486486486486" y="86.013513513514" xlink:href="#r0"/><use x="49.527027027027" y="86.013513513514" xlink:href="#r0"/><use x="58.648648648649" y="86.013513513514" xlink:href="#r0"/><use x="64.72972972973" y="86.013513513514" xlink:href="#r0"/><use x="67.77027027027" y="86.013513513514" xlink:href="#r0"/><use x="73.851351351351" y="86.013513513514" xlink:href="#r0"/><use x="76.891891891892" y="86.013513513514" xlink:href="#r0"/><use x="89.054054054054" y="86.013513513514" xlink:href="#r0"/><use x="92.094594594595" y="86.013513513514" xlink:href="#r0"/><use x="107.2972972973" y="86.013513513514" xlink:href="#r0"/><use x="110.33783783784" y="86.013513513514" xlink:href="#r0"/><use x="119.45945945946" y="86.013513513514" xlink:href="#r0"/><use x="131.62162162162" y="86.013513513514" xlink:href="#r0"/><use x="143.78378378378" y="86.013513513514" xlink:href="#r0"/><use x="146.82432432432" y="86.013513513514" xlink:href="#r0"/><use x="155.94594594595" y="86.013513513514" xlink:href="#r0"/><use x="16.081081081081" y="89.054054054054" xlink:href="#r0"/><use x="22.162162162162" y="89.054054054054" xlink:href="#r0"/><use x="25.202702702703" y="89.054054054054" xlink:href="#r0"/><use x="28.243243243243" y="89.054054054054" xlink:href="#r0"/><use x="31.283783783784" y="89.054054054054" xlink:href="#r0"/><use x="34.324324324324" y="89.054054054054" xlink:href="#r0"/><use x="37.364864864865" y="89.054054054054" xlink:href="#r0"/><use x="46.486486486486" y="89.054054054054" xlink:href="#r0"/><use x="49.527027027027" y="89.054054054054" xlink:href="#r0"/><use x="58.648648648649" y="89.054054054054" xlink:href="#r0"/><use x="61.689189189189" y="89.054054054054" xlink:href="#r0"/><use x="64.72972972973" y="89.054054054054" xlink:href="#r0"/><use x="67.77027027027" y="89.054054054054" xlink:href="#r0"/><use x="76.891891891892" y="89.054054054054" xlink:href="#r0"/><use x="79.932432432432" y="89.054054054054" xlink:href="#r0"/><use x="82.972972972973" y="89.054054054054" xlink:href="#r0"/><use x="86.013513513514" y="89.054054054054" xlink:href="#r0"/><use x="89.054054054054" y="89.054054054054" xlink:href="#r0"/><use x="95.135135135135" y="89.054054054054" xlink:href="#r0"/><use x="101.21621621622" y="89.054054054054" xlink:href="#r0"/><use x="113.37837837838" y="89.054054054054" xlink:href="#r0"/><use x="116.41891891892" y="89.054054054054" xlink:href="#r0"/><use x="119.45945945946" y="89.054054054054" xlink:href="#r0"/><use x="131.62162162162" y="89.054054054054" xlink:href="#r0"/><use x="134.66216216216" y="89.054054054054" xlink:href="#r0"/><use x="137.7027027027" y="89.054054054054" xlink:href="#r0"/><use x="140.74324324324" y="89.054054054054" xlink:href="#r0"/><use x="143.78378378378" y="89.054054054054" xlink:href="#r0"/><use x="146.82432432432" y="89.054054054054" xlink:href="#r0"/><use x="152.90540540541" y="89.054054054054" xlink:href="#r0"/><use x="155.94594594595" y="89.054054054054" xlink:href="#r0"/><use x="16.081081081081" y="92.094594594595" xlink:href="#r0"/><use x="22.162162162162" y="92.094594594595" xlink:href="#r0"/><use x="34.324324324324" y="92.094594594595" xlink:href="#r0"/><use x="37.364864864865" y="92.094594594595" xlink:href="#r0"/><use x="43.445945945946" y="92.094594594595" xlink:href="#r0"/><use x="46.486486486486" y="92.094594594595" xlink:href="#r0"/><use x="52.567567567568" y="92.094594594595" xlink:href="#r0"/><use x="55.608108108108" y="92.094594594595" xlink:href="#r0"/><use x="67.77027027027" y="92.094594594595" xlink:href="#r0"/><use x="76.891891891892" y="92.094594594595" xlink:href="#r0"/><use x="92.094594594595" y="92.094594594595" xlink:href="#r0"/><use x="95.135135135135" y="92.094594594595" xlink:href="#r0"/><use x="101.21621621622" y="92.094594594595" xlink:href="#r0"/><use x="104.25675675676" y="92.094594594595" xlink:href="#r0"/><use x="110.33783783784" y="92.094594594595" xlink:href="#r0"/><use x="122.5" y="92.094594594595" xlink:href="#r0"/><use x="140.74324324324" y="92.094594594595" xlink:href="#r0"/><use x="146.82432432432" y="92.094594594595" xlink:href="#r0"/><use x="152.90540540541" y="92.094594594595" xlink:href="#r0"/><use x="155.94594594595" y="92.094594594595" xlink:href="#r0"/><use x="10" y="95.135135135135" xlink:href="#r0"/><use x="16.081081081081" y="95.135135135135" xlink:href="#r0"/><use x="19.121621621622" y="95.135135135135" xlink:href="#r0"/><use x="25.202702702703" y="95.135135135135" xlink:href="#r0"/><use x="28.243243243243" y="95.135135135135" xlink:href="#r0"/><use x="34.324324324324" y="95.135135135135" xlink:href="#r0"/><use x="37.364864864865" y="95.135135135135" xlink:href="#r0"/><use x="43.445945945946" y="95.135135135135" xlink:href="#r0"/><use x="49.527027027027" y="95.135135135135" xlink:href="#r0"/><use x="64.72972972973" y="95.135135135135" xlink:href="#r0"/><use x="70.810810810811" y="95.135135135135" xlink:href="#r0"/><use x="73.851351351351" y="95.135135135135" xlink:href="#r0"/><use x="76.891891891892" y="95.135135135135" xlink:href="#r0"/><use x="79.932432432432" y="95.135135135135" xlink:href="#r0"/><use x="82.972972972973" y="95.135135135135" xlink:href="#r0"/><use x="86.013513513514" y="95.135135135135" xlink:href="#r0"/><use x="89.054054054054" y="95.135135135135" xlink:href="#r0"/><use x="92.094594594595" y="95.135135135135" xlink:href="#r0"/><use x="98.175675675676" y="95.135135135135" xlink:href="#r0"/><use x="104.25675675676" y="95.135135135135" xlink:href="#r0"/><use x="107.2972972973" y="95.135135135135" xlink:href="#r0"/><use x="110.33783783784" y="95.135135135135" xlink:href="#r0"/><use x="131.62162162162" y="95.135135135135" xlink:href="#r0"/><use x="137.7027027027" y="95.135135135135" xlink:href="#r0"/><use x="140.74324324324" y="95.135135135135" xlink:href="#r0"/><use x="143.78378378378" y="95.135135135135" xlink:href="#r0"/><use x="149.86486486486" y="95.135135135135" xlink:href="#r0"/><use x="155.94594594595" y="95.135135135135" xlink:href="#r0"/><use x="10" y="98.175675675676" xlink:href="#r0"/><use x="16.081081081081" y="98.175675675676" xlink:href="#r0"/><use x="22.162162162162" y="98.175675675676" xlink:href="#r0"/><use x="31.283783783784" y="98.175675675676" xlink:href="#r0"/><use x="37.364864864865" y="98.175675675676" xlink:href="#r0"/><use x="43.445945945946" y="98.175675675676" xlink:href="#r0"/><use x="46.486486486486" y="98.175675675676" xlink:href="#r0"/><use x="52.567567567568" y="98.175675675676" xlink:href="#r0"/><use x="55.608108108108" y="98.175675675676" xlink:href="#r0"/><use x="58.648648648649" y="98.175675675676" xlink:href="#r0"/><use x="61.689189189189" y="98.175675675676" xlink:href="#r0"/><use x="64.72972972973" y="98.175675675676" xlink:href="#r0"/><use x="67.77027027027" y="98.175675675676" xlink:href="#r0"/><use x="70.810810810811" y="98.175675675676" xlink:href="#r0"/><use x="82.972972972973" y="98.175675675676" xlink:href="#r0"/><use x="86.013513513514" y="98.175675675676" xlink:href="#r0"/><use x="92.094594594595" y="98.175675675676" xlink:href="#r0"/><use x="101.21621621622" y="98.175675675676" xlink:href="#r0"/><use x="104.25675675676" y="98.175675675676" xlink:href="#r0"/><use x="107.2972972973" y="98.175675675676" xlink:href="#r0"/><use x="113.37837837838" y="98.175675675676" xlink:href="#r0"/><use x="119.45945945946" y="98.175675675676" xlink:href="#r0"/><use x="128.58108108108" y="98.175675675676" xlink:href="#r0"/><use x="131.62162162162" y="98.175675675676" xlink:href="#r0"/><use x="137.7027027027" y="98.175675675676" xlink:href="#r0"/><use x="140.74324324324" y="98.175675675676" xlink:href="#r0"/><use x="146.82432432432" y="98.175675675676" xlink:href="#r0"/><use x="152.90540540541" y="98.175675675676" xlink:href="#r0"/><use x="155.94594594595" y="98.175675675676" xlink:href="#r0"/><use x="13.040540540541" y="101.21621621622" xlink:href="#r0"/><use x="22.162162162162" y="101.21621621622" xlink:href="#r0"/><use x="25.202702702703" y="101.21621621622" xlink:href="#r0"/><use x="28.243243243243" y="101.21621621622" xlink:href="#r0"/><use x="34.324324324324" y="101.21621621622" xlink:href="#r0"/><use x="40.405405405405" y="101.21621621622" xlink:href="#r0"/><use x="46.486486486486" y="101.21621621622" xlink:href="#r0"/><use x="58.648648648649" y="101.21621621622" xlink:href="#r0"/><use x="61.689189189189" y="101.21621621622" xlink:href="#r0"/><use x="67.77027027027" y="101.21621621622" xlink:href="#r0"/><use x="76.891891891892" y="101.21621621622" xlink:href="#r0"/><use x="89.054054054054" y="101.21621621622" xlink:href="#r0"/><use x="92.094594594595" y="101.21621621622" xlink:href="#r0"/><use x="98.175675675676" y="101.21621621622" xlink:href="#r0"/><use x="107.2972972973" y="101.21621621622" xlink:href="#r0"/><use x="113.37837837838" y="101.21621621622" xlink:href="#r0"/><use x="119.45945945946" y="101.21621621622" xlink:href="#r0"/><use x="128.58108108108" y="101.21621621622" xlink:href="#r0"/><use x="140.74324324324" y="101.21621621622" xlink:href="#r0"/><use x="10" y="104.25675675676" xlink:href="#r0"/><use x="31.283783783784" y="104.25675675676" xlink:href="#r0"/><use x="34.324324324324" y="104.25675675676" xlink:href="#r0"/><use x="46.486486486486" y="104.25675675676" xlink:href="#r0"/><use x="49.527027027027" y="104.25675675676" xlink:href="#r0"/><use x="55.608108108108" y="104.25675675676" xlink:href="#r0"/><use x="58.648648648649" y="104.25675675676" xlink:href="#r0"/><use x="67.77027027027" y="104.25675675676" xlink:href="#r0"/><use x="70.810810810811" y="104.25675675676" xlink:href="#r0"/><use x="76.891891891892" y="104.25675675676" xlink:href="#r0"/><use x="82.972972972973" y="104.25675675676" xlink:href="#r0"/><use x="86.013513513514" y="104.25675675676" xlink:href="#r0"/><use x="92.094594594595" y="104.25675675676" xlink:href="#r0"/><use x="95.135135135135" y="104.25675675676" xlink:href="#r0"/><use x="104.25675675676" y="104.25675675676" xlink:href="#r0"/><use x="110.33783783784" y="104.25675675676" xlink:href="#r0"/><use x="116.41891891892" y="104.25675675676" xlink:href="#r0"/><use x="131.62162162162" y="104.25675675676" xlink:href="#r0"/><use x="134.66216216216" y="104.25675675676" xlink:href="#r0"/><use x="137.7027027027" y="104.25675675676" xlink:href="#r0"/><use x="140.74324324324" y="104.25675675676" xlink:href="#r0"/><use x="152.90540540541" y="104.25675675676" xlink:href="#r0"/><use x="13.040540540541" y="107.2972972973" xlink:href="#r0"/><use x="16.081081081081" y="107.2972972973" xlink:href="#r0"/><use x="19.121621621622" y="107.2972972973" xlink:href="#r0"/><use x="22.162162162162" y="107.2972972973" xlink:href="#r0"/><use x="25.202702702703" y="107.2972972973" xlink:href="#r0"/><use x="28.243243243243" y="107.2972972973" xlink:href="#r0"/><use x="31.283783783784" y="107.2972972973" xlink:href="#r0"/><use x="40.405405405405" y="107.2972972973" xlink:href="#r0"/><use x="52.567567567568" y="107.2972972973" xlink:href="#r0"/><use x="82.972972972973" y="107.2972972973" xlink:href="#r0"/><use x="86.013513513514" y="107.2972972973" xlink:href="#r0"/><use x="92.094594594595" y="107.2972972973" xlink:href="#r0"/><use x="95.135135135135" y="107.2972972973" xlink:href="#r0"/><use x="101.21621621622" y="107.2972972973" xlink:href="#r0"/><use x="104.25675675676" y="107.2972972973" xlink:href="#r0"/><use x="107.2972972973" y="107.2972972973" xlink:href="#r0"/><use x="116.41891891892" y="107.2972972973" xlink:href="#r0"/><use x="119.45945945946" y="107.2972972973" xlink:href="#r0"/><use x="128.58108108108" y="107.2972972973" xlink:href="#r0"/><use x="137.7027027027" y="107.2972972973" xlink:href="#r0"/><use x="143.78378378378" y="107.2972972973" xlink:href="#r0"/><use x="146.82432432432" y="107.2972972973" xlink:href="#r0"/><use x="149.86486486486" y="107.2972972973" xlink:href="#r0"/><use x="155.94594594595" y="107.2972972973" xlink:href="#r0"/><use x="13.040540540541" y="110.33783783784" xlink:href="#r0"/><use x="19.121621621622" y="110.33783783784" xlink:href="#r0"/><use x="22.162162162162" y="110.33783783784" xlink:href="#r0"/><use x="25.202702702703" y="110.33783783784" xlink:href="#r0"/><use x="31.283783783784" y="110.33783783784" xlink:href="#r0"/><use x="34.324324324324" y="110.33783783784" xlink:href="#r0"/><use x="37.364864864865" y="110.33783783784" xlink:href="#r0"/><use x="40.405405405405" y="110.33783783784" xlink:href="#r0"/><use x="46.486486486486" y="110.33783783784" xlink:href="#r0"/><use x="55.608108108108" y="110.33783783784" xlink:href="#r0"/><use x="58.648648648649" y="110.33783783784" xlink:href="#r0"/><use x="61.689189189189" y="110.33783783784" xlink:href="#r0"/><use x="67.77027027027" y="110.33783783784" xlink:href="#r0"/><use x="73.851351351351" y="110.33783783784" xlink:href="#r0"/><use x="76.891891891892" y="110.33783783784" xlink:href="#r0"/><use x="89.054054054054" y="110.33783783784" xlink:href="#r0"/><use x="95.135135135135" y="110.33783783784" xlink:href="#r0"/><use x="101.21621621622" y="110.33783783784" xlink:href="#r0"/><use x="104.25675675676" y="110.33783783784" xlink:href="#r0"/><use x="110.33783783784" y="110.33783783784" xlink:href="#r0"/><use x="116.41891891892" y="110.33783783784" xlink:href="#r0"/><use x="122.5" y="110.33783783784" xlink:href="#r0"/><use x="125.54054054054" y="110.33783783784" xlink:href="#r0"/><use x="128.58108108108" y="110.33783783784" xlink:href="#r0"/><use x="131.62162162162" y="110.33783783784" xlink:href="#r0"/><use x="137.7027027027" y="110.33783783784" xlink:href="#r0"/><use x="140.74324324324" y="110.33783783784" xlink:href="#r0"/><use x="146.82432432432" y="110.33783783784" xlink:href="#r0"/><use x="152.90540540541" y="110.33783783784" xlink:href="#r0"/><use x="155.94594594595" y="110.33783783784" xlink:href="#r0"/><use x="10" y="113.37837837838" xlink:href="#r0"/><use x="16.081081081081" y="113.37837837838" xlink:href="#r0"/><use x="19.121621621622" y="113.37837837838" xlink:href="#r0"/><use x="22.162162162162" y="113.37837837838" xlink:href="#r0"/><use x="25.202702702703" y="113.37837837838" xlink:href="#r0"/><use x="28.243243243243" y="113.37837837838" xlink:href="#r0"/><use x="34.324324324324" y="113.37837837838" xlink:href="#r0"/><use x="37.364864864865" y="113.37837837838" xlink:href="#r0"/><use x="49.527027027027" y="113.37837837838" xlink:href="#r0"/><use x="55.608108108108" y="113.37837837838" xlink:href="#r0"/><use x="64.72972972973" y="113.37837837838" xlink:href="#r0"/><use x="76.891891891892" y="113.37837837838" xlink:href="#r0"/><use x="79.932432432432" y="113.37837837838" xlink:href="#r0"/><use x="86.013513513514" y="113.37837837838" xlink:href="#r0"/><use x="104.25675675676" y="113.37837837838" xlink:href="#r0"/><use x="107.2972972973" y="113.37837837838" xlink:href="#r0"/><use x="110.33783783784" y="113.37837837838" xlink:href="#r0"/><use x="113.37837837838" y="113.37837837838" xlink:href="#r0"/><use x="116.41891891892" y="113.37837837838" xlink:href="#r0"/><use x="119.45945945946" y="113.37837837838" xlink:href="#r0"/><use x="125.54054054054" y="113.37837837838" xlink:href="#r0"/><use x="128.58108108108" y="113.37837837838" xlink:href="#r0"/><use x="131.62162162162" y="113.37837837838" xlink:href="#r0"/><use x="146.82432432432" y="113.37837837838" xlink:href="#r0"/><use x="155.94594594595" y="113.37837837838" xlink:href="#r0"/><use x="13.040540540541" y="116.41891891892" xlink:href="#r0"/><use x="19.121621621622" y="116.41891891892" xlink:href="#r0"/><use x="25.202702702703" y="116.41891891892" xlink:href="#r0"/><use x="31.283783783784" y="116.41891891892" xlink:href="#r0"/><use x="43.445945945946" y="116.41891891892" xlink:href="#r0"/><use x="67.77027027027" y="116.41891891892" xlink:href="#r0"/><use x="70.810810810811" y="116.41891891892" xlink:href="#r0"/><use x="76.891891891892" y="116.41891891892" xlink:href="#r0"/><use x="82.972972972973" y="116.41891891892" xlink:href="#r0"/><use x="98.175675675676" y="116.41891891892" xlink:href="#r0"/><use x="101.21621621622" y="116.41891891892" xlink:href="#r0"/><use x="104.25675675676" y="116.41891891892" xlink:href="#r0"/><use x="107.2972972973" y="116.41891891892" xlink:href="#r0"/><use x="110.33783783784" y="116.41891891892" xlink:href="#r0"/><use x="122.5" y="116.41891891892" xlink:href="#r0"/><use x="128.58108108108" y="116.41891891892" xlink:href="#r0"/><use x="134.66216216216" y="116.41891891892" xlink:href="#r0"/><use x="137.7027027027" y="116.41891891892" xlink:href="#r0"/><use x="140.74324324324" y="116.41891891892" xlink:href="#r0"/><use x="146.82432432432" y="116.41891891892" xlink:href="#r0"/><use x="149.86486486486" y="116.41891891892" xlink:href="#r0"/><use x="152.90540540541" y="116.41891891892" xlink:href="#r0"/><use x="155.94594594595" y="116.41891891892" xlink:href="#r0"/><use x="22.162162162162" y="119.45945945946" xlink:href="#r0"/><use x="25.202702702703" y="119.45945945946" xlink:href="#r0"/><use x="28.243243243243" y="119.45945945946" xlink:href="#r0"/><use x="34.324324324324" y="119.45945945946" xlink:href="#r0"/><use x="40.405405405405" y="119.45945945946" xlink:href="#r0"/><use x="46.486486486486" y="119.45945945946" xlink:href="#r0"/><use x="52.567567567568" y="119.45945945946" xlink:href="#r0"/><use x="58.648648648649" y="119.45945945946" xlink:href="#r0"/><use x="61.689189189189" y="119.45945945946" xlink:href="#r0"/><use x="73.851351351351" y="119.45945945946" xlink:href="#r0"/><use x="76.891891891892" y="119.45945945946" xlink:href="#r0"/><use x="79.932432432432" y="119.45945945946" xlink:href="#r0"/><use x="89.054054054054" y="119.45945945946" xlink:href="#r0"/><use x="101.21621621622" y="119.45945945946" xlink:href="#r0"/><use x="110.33783783784" y="119.45945945946" xlink:href="#r0"/><use x="122.5" y="119.45945945946" xlink:href="#r0"/><use x="131.62162162162" y="119.45945945946" xlink:href="#r0"/><use x="134.66216216216" y="119.45945945946" xlink:href="#r0"/><use x="137.7027027027" y="119.45945945946" xlink:href="#r0"/><use x="140.74324324324" y="119.45945945946" xlink:href="#r0"/><use x="143.78378378378" y="119.45945945946" xlink:href="#r0"/><use x="155.94594594595" y="119.45945945946" xlink:href="#r0"/><use x="13.040540540541" y="122.5" xlink:href="#r0"/><use x="16.081081081081" y="122.5" xlink:href="#r0"/><use x="25.202702702703" y="122.5" xlink:href="#r0"/><use x="31.283783783784" y="122.5" xlink:href="#r0"/><use x="34.324324324324" y="122.5" xlink:href="#r0"/><use x="43.445945945946" y="122.5" xlink:href="#r0"/><use x="55.608108108108" y="122.5" xlink:href="#r0"/><use x="58.648648648649" y="122.5" xlink:href="#r0"/><use x="61.689189189189" y="122.5" xlink:href="#r0"/><use x="89.054054054054" y="122.5" xlink:href="#r0"/><use x="92.094594594595" y="122.5" xlink:href="#r0"/><use x="104.25675675676" y="122.5" xlink:href="#r0"/><use x="113.37837837838" y="122.5" xlink:href="#r0"/><use x="119.45945945946" y="122.5" xlink:href="#r0"/><use x="128.58108108108" y="122.5" xlink:href="#r0"/><use x="131.62162162162" y="122.5" xlink:href="#r0"/><use x="134.66216216216" y="122.5" xlink:href="#r0"/><use x="137.7027027027" y="122.5" xlink:href="#r0"/><use x="143.78378378378" y="122.5" xlink:href="#r0"/><use x="146.82432432432" y="122.5" xlink:href="#r0"/><use x="155.94594594595" y="122.5" xlink:href="#r0"/><use x="13.040540540541" y="125.54054054054" xlink:href="#r0"/><use x="25.202702702703" y="125.54054054054" xlink:href="#r0"/><use x="28.243243243243" y="125.54054054054" xlink:href="#r0"/><use x="31.283783783784" y="125.54054054054" xlink:href="#r0"/><use x="34.324324324324" y="125.54054054054" xlink:href="#r0"/><use x="37.364864864865" y="125.54054054054" xlink:href="#r0"/><use x="43.445945945946" y="125.54054054054" xlink:href="#r0"/><use x="46.486486486486" y="125.54054054054" xlink:href="#r0"/><use x="49.527027027027" y="125.54054054054" xlink:href="#r0"/><use x="52.567567567568" y="125.54054054054" xlink:href="#r0"/><use x="55.608108108108" y="125.54054054054" xlink:href="#r0"/><use x="58.648648648649" y="125.54054054054" xlink:href="#r0"/><use x="64.72972972973" y="125.54054054054" xlink:href="#r0"/><use x="67.77027027027" y="125.54054054054" xlink:href="#r0"/><use x="70.810810810811" y="125.54054054054" xlink:href="#r0"/><use x="73.851351351351" y="125.54054054054" xlink:href="#r0"/><use x="76.891891891892" y="125.54054054054" xlink:href="#r0"/><use x="86.013513513514" y="125.54054054054" xlink:href="#r0"/><use x="89.054054054054" y="125.54054054054" xlink:href="#r0"/><use x="92.094594594595" y="125.54054054054" xlink:href="#r0"/><use x="98.175675675676" y="125.54054054054" xlink:href="#r0"/><use x="101.21621621622" y="125.54054054054" xlink:href="#r0"/><use x="107.2972972973" y="125.54054054054" xlink:href="#r0"/><use x="119.45945945946" y="125.54054054054" xlink:href="#r0"/><use x="122.5" y="125.54054054054" xlink:href="#r0"/><use x="128.58108108108" y="125.54054054054" xlink:href="#r0"/><use x="131.62162162162" y="125.54054054054" xlink:href="#r0"/><use x="140.74324324324" y="125.54054054054" xlink:href="#r0"/><use x="146.82432432432" y="125.54054054054" xlink:href="#r0"/><use x="13.040540540541" y="128.58108108108" xlink:href="#r0"/><use x="16.081081081081" y="128.58108108108" xlink:href="#r0"/><use x="19.121621621622" y="128.58108108108" xlink:href="#r0"/><use x="43.445945945946" y="128.58108108108" xlink:href="#r0"/><use x="49.527027027027" y="128.58108108108" xlink:href="#r0"/><use x="55.608108108108" y="128.58108108108" xlink:href="#r0"/><use x="64.72972972973" y="128.58108108108" xlink:href="#r0"/><use x="73.851351351351" y="128.58108108108" xlink:href="#r0"/><use x="76.891891891892" y="128.58108108108" xlink:href="#r0"/><use x="79.932432432432" y="128.58108108108" xlink:href="#r0"/><use x="89.054054054054" y="128.58108108108" xlink:href="#r0"/><use x="101.21621621622" y="128.58108108108" xlink:href="#r0"/><use x="104.25675675676" y="128.58108108108" xlink:href="#r0"/><use x="110.33783783784" y="128.58108108108" xlink:href="#r0"/><use x="113.37837837838" y="128.58108108108" xlink:href="#r0"/><use x="116.41891891892" y="128.58108108108" xlink:href="#r0"/><use x="122.5" y="128.58108108108" xlink:href="#r0"/><use x="125.54054054054" y="128.58108108108" xlink:href="#r0"/><use x="134.66216216216" y="128.58108108108" xlink:href="#r0"/><use x="137.7027027027" y="128.58108108108" xlink:href="#r0"/><use x="140.74324324324" y="128.58108108108" xlink:href="#r0"/><use x="146.82432432432" y="128.58108108108" xlink:href="#r0"/><use x="149.86486486486" y="128.58108108108" xlink:href="#r0"/><use x="155.94594594595" y="128.58108108108" xlink:href="#r0"/><use x="10" y="131.62162162162" xlink:href="#r0"/><use x="13.040540540541" y="131.62162162162" xlink:href="#r0"/><use x="16.081081081081" y="131.62162162162" xlink:href="#r0"/><use x="28.243243243243" y="131.62162162162" xlink:href="#r0"/><use x="31.283783783784" y="131.62162162162" xlink:href="#r0"/><use x="34.324324324324" y="131.62162162162" xlink:href="#r0"/><use x="43.445945945946" y="131.62162162162" xlink:href="#r0"/><use x="46.486486486486" y="131.62162162162" xlink:href="#r0"/><use x="49.527027027027" y="131.62162162162" xlink:href="#r0"/><use x="52.567567567568" y="131.62162162162" xlink:href="#r0"/><use x="64.72972972973" y="131.62162162162" xlink:href="#r0"/><use x="76.891891891892" y="131.62162162162" xlink:href="#r0"/><use x="79.932432432432" y="131.62162162162" xlink:href="#r0"/><use x="82.972972972973" y="131.62162162162" xlink:href="#r0"/><use x="86.013513513514" y="131.62162162162" xlink:href="#r0"/><use x="89.054054054054" y="131.62162162162" xlink:href="#r0"/><use x="92.094594594595" y="131.62162162162" xlink:href="#r0"/><use x="95.135135135135" y="131.62162162162" xlink:href="#r0"/><use x="110.33783783784" y="131.62162162162" xlink:href="#r0"/><use x="119.45945945946" y="131.62162162162" xlink:href="#r0"/><use x="122.5" y="131.62162162162" xlink:href="#r0"/><use x="128.58108108108" y="131.62162162162" xlink:href="#r0"/><use x="131.62162162162" y="131.62162162162" xlink:href="#r0"/><use x="134.66216216216" y="131.62162162162" xlink:href="#r0"/><use x="137.7027027027" y="131.62162162162" xlink:href="#r0"/><use x="140.74324324324" y="131.62162162162" xlink:href="#r0"/><use x="143.78378378378" y="131.62162162162" xlink:href="#r0"/><use x="152.90540540541" y="131.62162162162" xlink:href="#r0"/><use x="155.94594594595" y="131.62162162162" xlink:href="#r0"/><use x="34.324324324324" y="134.66216216216" xlink:href="#r0"/><use x="40.405405405405" y="134.66216216216" xlink:href="#r0"/><use x="43.445945945946" y="134.66216216216" xlink:href="#r0"/><use x="52.567567567568" y="134.66216216216" xlink:href="#r0"/><use x="55.608108108108" y="134.66216216216" xlink:href="#r0"/><use x="58.648648648649" y="134.66216216216" xlink:href="#r0"/><use x="64.72972972973" y="134.66216216216" xlink:href="#r0"/><use x="67.77027027027" y="134.66216216216" xlink:href="#r0"/><use x="76.891891891892" y="134.66216216216" xlink:href="#r0"/><use x="89.054054054054" y="134.66216216216" xlink:href="#r0"/><use x="92.094594594595" y="134.66216216216" xlink:href="#r0"/><use x="101.21621621622" y="134.66216216216" xlink:href="#r0"/><use x="107.2972972973" y="134.66216216216" xlink:href="#r0"/><use x="110.33783783784" y="134.66216216216" xlink:href="#r0"/><use x="113.37837837838" y="134.66216216216" xlink:href="#r0"/><use x="116.41891891892" y="134.66216216216" xlink:href="#r0"/><use x="119.45945945946" y="134.66216216216" xlink:href="#r0"/><use x="122.5" y="134.66216216216" xlink:href="#r0"/><use x="125.54054054054" y="134.66216216216" xlink:href="#r0"/><use x="128.58108108108" y="134.66216216216" xlink:href="#r0"/><use x="131.62162162162" y="134.66216216216" xlink:href="#r0"/><use x="143.78378378378" y="134.66216216216" xlink:href="#r0"/><use x="146.82432432432" y="134.66216216216" xlink:href="#r0"/><use x="152.90540540541" y="134.66216216216" xlink:href="#r0"/><use x="10" y="137.7027027027" xlink:href="#r0"/><use x="13.040540540541" y="137.7027027027" xlink:href="#r0"/><use x="16.081081081081" y="137.7027027027" xlink:href="#r0"/><use x="19.121621621622" y="137.7027027027" xlink:href="#r0"/><use x="22.162162162162" y="137.7027027027" xlink:href="#r0"/><use x="25.202702702703" y="137.7027027027" xlink:href="#r0"/><use x="28.243243243243" y="137.7027027027" xlink:href="#r0"/><use x="34.324324324324" y="137.7027027027" xlink:href="#r0"/><use x="37.364864864865" y="137.7027027027" xlink:href="#r0"/><use x="43.445945945946" y="137.7027027027" xlink:href="#r0"/><use x="55.608108108108" y="137.7027027027" xlink:href="#r0"/><use x="58.648648648649" y="137.7027027027" xlink:href="#r0"/><use x="61.689189189189" y="137.7027027027" xlink:href="#r0"/><use x="76.891891891892" y="137.7027027027" xlink:href="#r0"/><use x="82.972972972973" y="137.7027027027" xlink:href="#r0"/><use x="89.054054054054" y="137.7027027027" xlink:href="#r0"/><use x="98.175675675676" y="137.7027027027" xlink:href="#r0"/><use x="101.21621621622" y="137.7027027027" xlink:href="#r0"/><use x="107.2972972973" y="137.7027027027" xlink:href="#r0"/><use x="110.33783783784" y="137.7027027027" xlink:href="#r0"/><use x="113.37837837838" y="137.7027027027" xlink:href="#r0"/><use x="116.41891891892" y="137.7027027027" xlink:href="#r0"/><use x="119.45945945946" y="137.7027027027" xlink:href="#r0"/><use x="122.5" y="137.7027027027" xlink:href="#r0"/><use x="125.54054054054" y="137.7027027027" xlink:href="#r0"/><use x="131.62162162162" y="137.7027027027" xlink:href="#r0"/><use x="137.7027027027" y="137.7027027027" xlink:href="#r0"/><use x="143.78378378378" y="137.7027027027" xlink:href="#r0"/><use x="146.82432432432" y="137.7027027027" xlink:href="#r0"/><use x="155.94594594595" y="137.7027027027" xlink:href="#r0"/><use x="10" y="140.74324324324" xlink:href="#r0"/><use x="28.243243243243" y="140.74324324324" xlink:href="#r0"/><use x="34.324324324324" y="140.74324324324" xlink:href="#r0"/><use x="37.364864864865" y="140.74324324324" xlink:href="#r0"/><use x="46.486486486486" y="140.74324324324" xlink:href="#r0"/><use x="55.608108108108" y="140.74324324324" xlink:href="#r0"/><use x="58.648648648649" y="140.74324324324" xlink:href="#r0"/><use x="67.77027027027" y="140.74324324324" xlink:href="#r0"/><use x="70.810810810811" y="140.74324324324" xlink:href="#r0"/><use x="73.851351351351" y="140.74324324324" xlink:href="#r0"/><use x="76.891891891892" y="140.74324324324" xlink:href="#r0"/><use x="89.054054054054" y="140.74324324324" xlink:href="#r0"/><use x="95.135135135135" y="140.74324324324" xlink:href="#r0"/><use x="101.21621621622" y="140.74324324324" xlink:href="#r0"/><use x="104.25675675676" y="140.74324324324" xlink:href="#r0"/><use x="110.33783783784" y="140.74324324324" xlink:href="#r0"/><use x="116.41891891892" y="140.74324324324" xlink:href="#r0"/><use x="128.58108108108" y="140.74324324324" xlink:href="#r0"/><use x="131.62162162162" y="140.74324324324" xlink:href="#r0"/><use x="143.78378378378" y="140.74324324324" xlink:href="#r0"/><use x="149.86486486486" y="140.74324324324" xlink:href="#r0"/><use x="152.90540540541" y="140.74324324324" xlink:href="#r0"/><use x="155.94594594595" y="140.74324324324" xlink:href="#r0"/><use x="10" y="143.78378378378" xlink:href="#r0"/><use x="16.081081081081" y="143.78378378378" xlink:href="#r0"/><use x="19.121621621622" y="143.78378378378" xlink:href="#r0"/><use x="22.162162162162" y="143.78378378378" xlink:href="#r0"/><use x="28.243243243243" y="143.78378378378" xlink:href="#r0"/><use x="37.364864864865" y="143.78378378378" xlink:href="#r0"/><use x="52.567567567568" y="143.78378378378" xlink:href="#r0"/><use x="61.689189189189" y="143.78378378378" xlink:href="#r0"/><use x="64.72972972973" y="143.78378378378" xlink:href="#r0"/><use x="70.810810810811" y="143.78378378378" xlink:href="#r0"/><use x="73.851351351351" y="143.78378378378" xlink:href="#r0"/><use x="76.891891891892" y="143.78378378378" xlink:href="#r0"/><use x="79.932432432432" y="143.78378378378" xlink:href="#r0"/><use x="82.972972972973" y="143.78378378378" xlink:href="#r0"/><use x="86.013513513514" y="143.78378378378" xlink:href="#r0"/><use x="89.054054054054" y="143.78378378378" xlink:href="#r0"/><use x="92.094594594595" y="143.78378378378" xlink:href="#r0"/><use x="95.135135135135" y="143.78378378378" xlink:href="#r0"/><use x="98.175675675676" y="143.78378378378" xlink:href="#r0"/><use x="107.2972972973" y="143.78378378378" xlink:href="#r0"/><use x="110.33783783784" y="143.78378378378" xlink:href="#r0"/><use x="119.45945945946" y="143.78378378378" xlink:href="#r0"/><use x="122.5" y="143.78378378378" xlink:href="#r0"/><use x="128.58108108108" y="143.78378378378" xlink:href="#r0"/><use x="131.62162162162" y="143.78378378378" xlink:href="#r0"/><use x="134.66216216216" y="143.78378378378" xlink:href="#r0"/><use x="137.7027027027" y="143.78378378378" xlink:href="#r0"/><use x="140.74324324324" y="143.78378378378" xlink:href="#r0"/><use x="143.78378378378" y="143.78378378378" xlink:href="#r0"/><use x="146.82432432432" y="143.78378378378" xlink:href="#r0"/><use x="149.86486486486" y="143.78378378378" xlink:href="#r0"/><use x="155.94594594595" y="143.78378378378" xlink:href="#r0"/><use x="10" y="146.82432432432" xlink:href="#r0"/><use x="16.081081081081" y="146.82432432432" xlink:href="#r0"/><use x="19.121621621622" y="146.82432432432" xlink:href="#r0"/><use x="22.162162162162" y="146.82432432432" xlink:href="#r0"/><use x="28.243243243243" y="146.82432432432" xlink:href="#r0"/><use x="37.364864864865" y="146.82432432432" xlink:href="#r0"/><use x="40.405405405405" y="146.82432432432" xlink:href="#r0"/><use x="43.445945945946" y="146.82432432432" xlink:href="#r0"/><use x="73.851351351351" y="146.82432432432" xlink:href="#r0"/><use x="79.932432432432" y="146.82432432432" xlink:href="#r0"/><use x="86.013513513514" y="146.82432432432" xlink:href="#r0"/><use x="89.054054054054" y="146.82432432432" xlink:href="#r0"/><use x="95.135135135135" y="146.82432432432" xlink:href="#r0"/><use x="107.2972972973" y="146.82432432432" xlink:href="#r0"/><use x="110.33783783784" y="146.82432432432" xlink:href="#r0"/><use x="113.37837837838" y="146.82432432432" xlink:href="#r0"/><use x="119.45945945946" y="146.82432432432" xlink:href="#r0"/><use x="122.5" y="146.82432432432" xlink:href="#r0"/><use x="125.54054054054" y="146.82432432432" xlink:href="#r0"/><use x="134.66216216216" y="146.82432432432" xlink:href="#r0"/><use x="140.74324324324" y="146.82432432432" xlink:href="#r0"/><use x="143.78378378378" y="146.82432432432" xlink:href="#r0"/><use x="146.82432432432" y="146.82432432432" xlink:href="#r0"/><use x="152.90540540541" y="146.82432432432" xlink:href="#r0"/><use x="10" y="149.86486486486" xlink:href="#r0"/><use x="16.081081081081" y="149.86486486486" xlink:href="#r0"/><use x="19.121621621622" y="149.86486486486" xlink:href="#r0"/><use x="22.162162162162" y="149.86486486486" xlink:href="#r0"/><use x="28.243243243243" y="149.86486486486" xlink:href="#r0"/><use x="34.324324324324" y="149.86486486486" xlink:href="#r0"/><use x="37.364864864865" y="149.86486486486" xlink:href="#r0"/><use x="40.405405405405" y="149.86486486486" xlink:href="#r0"/><use x="43.445945945946" y="149.86486486486" xlink:href="#r0"/><use x="49.527027027027" y="149.86486486486" xlink:href="#r0"/><use x="55.608108108108" y="149.86486486486" xlink:href="#r0"/><use x="58.648648648649" y="149.86486486486" xlink:href="#r0"/><use x="61.689189189189" y="149.86486486486" xlink:href="#r0"/><use x="67.77027027027" y="149.86486486486" xlink:href="#r0"/><use x="73.851351351351" y="149.86486486486" xlink:href="#r0"/><use x="76.891891891892" y="149.86486486486" xlink:href="#r0"/><use x="79.932432432432" y="149.86486486486" xlink:href="#r0"/><use x="86.013513513514" y="149.86486486486" xlink:href="#r0"/><use x="107.2972972973" y="149.86486486486" xlink:href="#r0"/><use x="119.45945945946" y="149.86486486486" xlink:href="#r0"/><use x="128.58108108108" y="149.86486486486" xlink:href="#r0"/><use x="131.62162162162" y="149.86486486486" xlink:href="#r0"/><use x="134.66216216216" y="149.86486486486" xlink:href="#r0"/><use x="152.90540540541" y="149.86486486486" xlink:href="#r0"/><use x="155.94594594595" y="149.86486486486" xlink:href="#r0"/><use x="10" y="152.90540540541" xlink:href="#r0"/><use x="28.243243243243" y="152.90540540541" xlink:href="#r0"/><use x="40.405405405405" y="152.90540540541" xlink:href="#r0"/><use x="52.567567567568" y="152.90540540541" xlink:href="#r0"/><use x="55.608108108108" y="152.90540540541" xlink:href="#r0"/><use x="64.72972972973" y="152.90540540541" xlink:href="#r0"/><use x="67.77027027027" y="152.90540540541" xlink:href="#r0"/><use x="73.851351351351" y="152.90540540541" xlink:href="#r0"/><use x="76.891891891892" y="152.90540540541" xlink:href="#r0"/><use x="98.175675675676" y="152.90540540541" xlink:href="#r0"/><use x="101.21621621622" y="152.90540540541" xlink:href="#r0"/><use x="107.2972972973" y="152.90540540541" xlink:href="#r0"/><use x="110.33783783784" y="152.90540540541" xlink:href="#r0"/><use x="122.5" y="152.90540540541" xlink:href="#r0"/><use x="143.78378378378" y="152.90540540541" xlink:href="#r0"/><use x="152.90540540541" y="152.90540540541" xlink:href="#r0"/><use x="155.94594594595" y="152.90540540541" xlink:href="#r0"/><use x="10" y="155.94594594595" xlink:href="#r0"/><use x="13.040540540541" y="155.94594594595" xlink:href="#r0"/><use x="16.081081081081" y="155.94594594595" xlink:href="#r0"/><use x="19.121621621622" y="155.94594594595" xlink:href="#r0"/><use x="22.162162162162" y="155.94594594595" xlink:href="#r0"/><use x="25.202702702703" y="155.94594594595" xlink:href="#r0"/><use x="28.243243243243" y="155.94594594595" xlink:href="#r0"/><use x="37.364864864865" y="155.94594594595" xlink:href="#r0"/><use x="40.405405405405" y="155.94594594595" xlink:href="#r0"/><use x="43.445945945946" y="155.94594594595" xlink:href="#r0"/><use x="46.486486486486" y="155.94594594595" xlink:href="#r0"/><use x="49.527027027027" y="155.94594594595" xlink:href="#r0"/><use x="55.608108108108" y="155.94594594595" xlink:href="#r0"/><use x="61.689189189189" y="155.94594594595" xlink:href="#r0"/><use x="64.72972972973" y="155.94594594595" xlink:href="#r0"/><use x="70.810810810811" y="155.94594594595" xlink:href="#r0"/><use x="73.851351351351" y="155.94594594595" xlink:href="#r0"/><use x="86.013513513514" y="155.94594594595" xlink:href="#r0"/><use x="101.21621621622" y="155.94594594595" xlink:href="#r0"/><use x="107.2972972973" y="155.94594594595" xlink:href="#r0"/><use x="119.45945945946" y="155.94594594595" xlink:href="#r0"/><use x="128.58108108108" y="155.94594594595" xlink:href="#r0"/><use x="131.62162162162" y="155.94594594595" xlink:href="#r0"/><use x="140.74324324324" y="155.94594594595" xlink:href="#r0"/><use x="143.78378378378" y="155.94594594595" xlink:href="#r0"/><use x="146.82432432432" y="155.94594594595" xlink:href="#r0"/><use x="149.86486486486" y="155.94594594595" xlink:href="#r0"/><use x="155.94594594595" y="155.94594594595" xlink:href="#r0"/><svg width="68" height="68.000006601942" viewBox="0 0 102.99999 103" preserveAspectRatio="xMinYMid meet" overflow="visible" x="51" y="50.999996699029">
  <linearGradient id="a" gradientUnits="userSpaceOnUse" x1="15.5879" y1="31.877001" x2="41.848598" y2="31.877001" gradientTransform="matrix(1.26933 0 0 1.26933 .846 -16.955)">
    <stop offset="0" stop-color="#929497"/>
    <stop offset=".1245" stop-color="#757578"/>
    <stop offset=".2792" stop-color="#575658"/>
    <stop offset=".4403" stop-color="#403E3F"/>
    <stop offset=".6085" stop-color="#302D2E"/>
    <stop offset=".7884" stop-color="#262223"/>
    <stop offset="1" stop-color="#231F20"/>
  </linearGradient>
  <linearGradient id="b" gradientUnits="userSpaceOnUse" x1="20.6187" y1="23.1113" x2="31.5222" y2="38.683201" gradientTransform="matrix(1.26933 0 0 1.26933 .846 -16.955)">
    <stop offset="0" stop-color="#231F20"/>
    <stop offset="1" stop-color="#231F20" stop-opacity="0"/>
  </linearGradient>
  <linearGradient id="c" gradientUnits="userSpaceOnUse" x1="1.1670001" y1="23.5879" x2="49.166" y2="23.5879" gradientTransform="matrix(1.26933 0 0 1.26933 .846 -16.955)">
    <stop offset="0" stop-color="#929497"/>
    <stop offset=".1245" stop-color="#757578"/>
    <stop offset=".2792" stop-color="#575658"/>
    <stop offset=".4403" stop-color="#403E3F"/>
    <stop offset=".6085" stop-color="#302D2E"/>
    <stop offset=".7884" stop-color="#262223"/>
    <stop offset="1" stop-color="#231F20"/>
  </linearGradient>
  <rect width="76.114708" height="76.114708" x="13.442645" y="13.442645" ry="5.3568497" fill="#f47e29" stroke="#f47e29" stroke-width="26.88529015" stroke-linejoin="round" paint-order="markers stroke fill"/>
  <g transform="translate(.33 15.81)">
    <path d="M22.043724 23.917481c-.507733 2.538667-1.015466 5.077334-1.5232 7.616 13.962667 4.696533 27.163733.126933 34.145067-12.058666-10.2816-7.108267-19.8016.126933-32.621867 4.442666" fill="#58595b"/>
    <path fill="#383738" stroke="#4a4a4c" stroke-width=".63466668" d="M63.297047 3.4812143L39.306652 20.871077"/>
    <path d="M34.737057 12.747348c.253867 2.792533-.3808-2.6656 0 0" opacity=".23000004" fill="#231f20"/>
    <path fill="#fff" stroke="#a8abad" stroke-width=".63466668" d="M2.3690572 22.013481l36.9375948-1.142404"/>
    <path d="M80.052257 65.805482V36.864681c0-6.0928-2.538666-9.1392-7.489066-9.1392s-7.489067 3.0464-7.489067 9.1392v28.940801h-14.8512V36.864681c0-6.0928-2.411733-9.1392-7.362133-9.1392s-7.489067 3.0464-7.489067 9.1392v28.940801H20.647458V35.214548c0-6.346667 2.157866-11.0432 6.600533-14.343467 3.808-2.919466 9.1392-4.315733 15.6128-4.315733 6.727466 0 11.550933 1.650133 14.724266 5.077333 2.6656-3.4272 7.616-5.077333 14.8512-5.077333 6.600534 0 11.8048 1.396267 15.6128 4.315733 4.442667 3.300267 6.600534 7.9968 6.600534 14.343467v30.717868H80.052257z" fill="#fdffff"/>
    <path d="M22.043724 22.013481c-.507733 2.919467-.888533 5.712-1.396266 8.631467 13.327999 4.5696 26.402133.634666 33.383466-11.297067-8.885333-10.2816-18.786133-1.777066-31.9872 2.6656" fill="url(#a)"/>
    <path d="M37.910391 25.440681c-6.0928-1.269333-12.693333 1.904-17.262933 5.204267C17.727993 9.3201477 30.929057 9.8278811 48.191991 15.159081c-1.1424 5.204267-3.0464 12.1856-6.346667 16.3744-.126933-2.792533-1.396267-4.696533-3.934933-6.0928" fill="url(#b)"/>
    <path d="M2.3690597 22.013481C24.709324 8.5585477 37.275724 6.019881 63.297057 3.354281c-30.210133 23.863467-30.971733 18.6592-60.9279973 18.6592" fill="url(#c)"/>
    <path d="M32.452257 13.001214c-6.346666 1.777067-27.1637295 6.346667-27.4175961 9.012267-.6346667 4.9504-.1269334 12.820267-.1269334 12.820267" fill="none" stroke="#fffffd" stroke-width=".63466668"/>
    <path d="M6.8117275 53.746816c-2.2848-5.712-5.0773344-12.058667-1.7770666-19.928535 2.1578666 7.362135 1.7770666 12.947201 1.7770666 19.928535" fill="#fff"/>
    <ellipse ry=".50773114" rx="1.0154623" cy="22.478498" cx="25.506926" transform="rotate(-19.61)" fill="#6d6e70"/>
  </g>
</svg></svg>
