<svg xmlns="http://www.w3.org/2000/svg" id="Ebene_2" data-name="Ebene 2" viewBox="0 0 129.05 27.1"><defs><style>      .cls-1 {        fill: #f8aa00;      }      .cls-2 {        fill: #fff;      }      .cls-3 {        fill: #009bd5;      }      .cls-4 {        fill: #d83700;      }      .cls-5 {        fill: #5bb500;      }      .cls-6 {        fill: #3c3c3c;      }    </style></defs><g id="Ebene_1-2" data-name="Ebene 1"><g><rect class="cls-6" x="58.5" y="1.4" width="70.55" height="23.67" rx="2.63" ry="2.63"></rect><g><path class="cls-2" d="m77.65,10.02c-1.42-.05-2.84-.09-4.26-.1,0,.7-.01,1.77-.04,3.22-.03,1.45-.04,2.54-.04,3.27,0,1.53.04,2.87.14,4.02h-4.47c.04-.54.06-2.22.06-5.02v-5.49c-.48,0-1.9.03-4.28.1v-3.43c2.01.17,4.13.25,6.35.25s4.41-.08,6.54-.25v3.43Z"></path><path class="cls-2" d="m93.79,13.12c0,2.35-.83,4.23-2.48,5.63-1.57,1.33-3.56,1.99-5.96,1.99-2.08,0-3.82-.59-5.23-1.76-1.5-1.25-2.25-2.89-2.25-4.92,0-2.35.83-4.25,2.48-5.71,1.59-1.41,3.57-2.11,5.94-2.11,2.23,0,4.02.58,5.36,1.74,1.42,1.23,2.13,2.94,2.13,5.13Zm-4.74.14c0-1.11-.21-2.01-.64-2.71-.53-.85-1.32-1.28-2.36-1.28-1.11,0-1.98.49-2.61,1.47-.55.85-.83,1.86-.83,3.04,0,1.05.23,1.93.68,2.65.54.86,1.3,1.3,2.28,1.3,1.19,0,2.09-.46,2.71-1.39.52-.8.77-1.83.77-3.08Z"></path><path class="cls-2" d="m109.1,10.72c.01,3.14-.34,5.43-1.06,6.89-1.05,2.09-2.99,3.14-5.83,3.14-2.19,0-3.83-.57-4.9-1.72-.86-.93-1.41-2.32-1.65-4.18-.12-.93-.17-2.67-.15-5.23l.02-2.96h4.51c-.06.46-.11.99-.14,1.57-.01.41-.01.94,0,1.59.01.89.02,1.41.02,1.57,0,1.92.06,3.18.19,3.77.32,1.56,1.11,2.34,2.35,2.34,1.64,0,2.47-1.95,2.47-5.85,0-.85-.05-1.88-.15-3.08-.1-1.37-.15-2.1-.15-2.21h4.45v4.35Z"></path><path class="cls-2" d="m123.77,18.36l-3.54,2.69c-.54-.88-1.33-2.06-2.36-3.56-1.15-1.66-1.94-2.84-2.38-3.52,1.5-.92,2.25-1.88,2.25-2.9,0-1.2-.91-1.81-2.73-1.82v7.2c-.01.84-.01,1.51,0,2.01,0,.75.04,1.41.1,1.97h-4.32c.14-2.27.21-4.84.21-7.7s-.1-4.95-.29-6.17c.17,0,.54,0,1.12-.02.58-.01,1.06-.02,1.43-.02,5.97,0,8.96,1.21,8.96,3.62,0,1.42-.84,2.72-2.52,3.91.93.94,2.28,2.38,4.06,4.32Z"></path></g><g><path class="cls-6" d="m30.56,9.9c.23-.8.58-1.57,1.03-2.29.45-.72,1.04-1.33,1.76-1.82.29-.18.56-.28.81-.32.24-.04.46-.03.65.01.19.05.33.13.43.23.1.11.14.21.12.31.82,0,1.53.15,2.13.46.6.3,1.09.72,1.48,1.25.39.53.68,1.16.87,1.9.19.73.27,1.54.25,2.42-.02,1.02-.12,2.02-.31,3.01-.19.99-.48,1.88-.88,2.67-.4.79-.92,1.44-1.54,1.94-.63.5-1.38.76-2.26.78-.72.02-1.37-.13-1.92-.46-.56-.32-1.04-.76-1.44-1.32-.4-.56-.73-1.2-.97-1.92-.25-.72-.42-1.48-.51-2.28-.1-.79-.12-1.58-.06-2.37.06-.78.19-1.52.38-2.2Zm4.58-1.85c-.67,0-1.21.25-1.63.76-.42.51-.72,1.15-.91,1.92-.19.77-.27,1.61-.25,2.51.02.9.14,1.74.35,2.51.22.77.51,1.42.88,1.95.37.53.82.79,1.35.79s1.02-.22,1.41-.65c.39-.43.71-.98.96-1.66.25-.68.42-1.42.53-2.22.11-.8.15-1.56.13-2.26-.04-1.19-.28-2.11-.73-2.73-.45-.63-1.15-.94-2.09-.94Z"></path><path class="cls-6" d="m50.3,19.89c.06-1.37.06-2.76,0-4.17-.06-1.41-.18-2.68-.37-3.82-.19-1.14-.43-2.06-.72-2.76-.29-.71-.65-1.04-1.06-1-.25.02-.55.32-.9.9-.34.58-.69,1.39-1.04,2.44s-.69,2.3-1.01,3.75c-.32,1.45-.59,3.07-.81,4.85-.04.27-.2.47-.48.59-.28.12-.59.15-.93.1-.33-.05-.63-.16-.88-.34-.25-.18-.36-.42-.32-.73.08-.35.14-.89.19-1.6.05-.71.08-1.5.1-2.35.02-.85.03-1.74.03-2.66s-.01-1.77-.03-2.54c-.02-.77-.05-1.43-.1-1.95-.05-.53-.09-.85-.13-.97-.04-.25.05-.46.28-.62.23-.16.48-.24.76-.25.28,0,.55.04.79.16.24.12.38.32.4.62.02.35.03.68.03.97v.9c0,.3,0,.63.01.98,0,.35.02.76.04,1.23.14-.39.29-.91.47-1.56s.41-1.28.71-1.9c.29-.62.68-1.15,1.16-1.6.48-.45,1.1-.67,1.87-.65.31,0,.63.06.94.19s.61.36.9.71c.28.34.56.83.82,1.45.26.63.5,1.45.72,2.45.22,1.01.41,2.23.59,3.67s.33,3.15.47,5.13c0,.33-.13.58-.4.75s-.55.26-.85.28c-.3.02-.59-.02-.85-.13s-.4-.28-.4-.51Z"></path></g><g><path class="cls-1" d="m11.69,14.06c.92-.26,1.84-.57,2.75-.95.17-.07.33-.15.5-.22.46-.21.92-.43,1.37-.65l.9-.5.88-.55c1.17-.76,2.28-1.68,3.27-2.72.99-1.05,1.85-2.21,2.56-3.43.56-.95,1.04-1.92,1.48-2.88.2-.44.04-.97-.37-1.2l-1.59-.86c-.12-.07-.25-.1-.38-.1-.29,0-.57.16-.72.44-1.05,1.93-2.21,3.65-3.66,4.95-.81.74-1.71,1.37-2.68,1.91l-.74.38-.76.35c-.51.21-1.02.42-1.55.58"></path><path class="cls-3" d="m12.97,8.61c-2.11.69-4.38,1.01-6.69,1.14-.8.05-1.6.06-2.41.06-1.27,0-1.68-.04-3-.1-.01,0-.02,0-.03,0-.46,0-.84.4-.84.89v4.06c0,.5.38.89.84.89,0,0,.02,0,.03,0,2.18-.08,3.58-.19,5.85-.49,1.65-.22,3.32-.53,4.98-1"></path><g><path class="cls-5" d="m23.85,19.16c-.54-.77-1.13-1.5-1.76-2.2-1.08-1.19-2.32-2.23-3.63-3.13l-.04.02-.04.02-.04.02c-.58.29-1.3.65-2.04.95-1.13.47-2.31.86-3.58,1.19.05.03.11.06.17.08,2.42.82,4.63,2.06,6.48,3.85"></path><path class="cls-4" d="m19.37,19.96c1.88,1.79,3.38,4.11,4.6,6.65.2.42.67.61,1.08.42l1.55-.72c.42-.2.62-.72.44-1.17-.54-1.33-1.15-2.63-1.87-3.9-.4-.71-.84-1.41-1.32-2.08"></path></g></g></g></g></svg>